<svg viewBox="0 0 620.3 647.6" xmlns:xlink="http://www.w3.org/1999/xlink" xmlns="http://www.w3.org/2000/svg"><defs><style>.cls-1{fill:#a5d7d3;opacity:0.8;}.cls-2{fill:#009e8f;}.cls-3{fill:#f59a00;}.cls-4{fill:#fff;}.cls-5{fill:#54a8ba;}.cls-6{clip-path:url(#clip-path);}.cls-7{fill:#007e97;}.cls-8{fill:#f7b038;}.cls-9{fill:#005560;}.cls-10{opacity:0.51;}.cls-11{fill:none;stroke:#a5d7d3;stroke-miterlimit:10;stroke-width:8px;}</style><clipPath id="clip-path"><path d="M334,577.32a97.94,97.94,0,0,0,3.49-25.94c0-55.56-46.25-100.6-103.31-100.6s-103.32,45-103.32,100.6a98,98,0,0,0,3.53,26.06c28.62,21.76,63.34,29.15,99.79,28.87C269.7,606.59,305.07,599.18,334,577.32Z" class="cls-1"></path></clipPath></defs><title>idea</title><g id="Layer_2"><g id="Layer_1-2"><g id="idea"><path d="M382.65,241.76c-2.89-1.14-9.08,2.84-15.88,8.46L369.7,237c-21.47,9.08-37,36.79-37,36.79h0c-38.31-12.95-71.31-17.1-98.5-16.74-27.48-.36-60.91,3.89-99.73,17.17C131.19,258.69,95.91,237,95.91,237l1.7,10.12c-5.16-3.86-9.59-6.23-11.91-5.32C77.55,245,36.08,465.9,113.58,557c31.67,37.23,74.77,49,120.6,48.62,44.58.36,88.93-11.39,120.6-48.62C432.27,465.9,390.8,245,382.65,241.76Z" class="cls-2"></path><path d="M212.46,632.52l-10.39-9.64V596.31a6.47,6.47,0,0,0-12.94,0V621.9a5.83,5.83,0,0,0-1.64,1.35l-9.27,11.07a6,6,0,0,0,9.26,7.75l2.69-3.21v2.7a6,6,0,1,0,12.07,0V639.5l2,1.87a6,6,0,1,0,8.21-8.85Z" class="cls-3"></path><path d="M289.61,632.52l-10.39-9.64V596.31a6.47,6.47,0,0,0-12.93,0V621.9a5.69,5.69,0,0,0-1.64,1.35l-9.28,11.07a6,6,0,0,0,9.26,7.75l2.69-3.21v2.7a6,6,0,1,0,12.07,0V639.5l2,1.87a6,6,0,0,0,8.21-8.85Z" class="cls-3"></path><path d="M369.05,267.43l-9.12,5,1.77-6.77s-5.88,2.65-21.47,14.12a50.64,50.64,0,0,1-31.75,10c-60.53,4.46-72.47,51-74.36,61a77.11,77.11,0,0,0-17.79-33.62c-10.88-13.08-28.84-25.25-58.34-27.42a50.64,50.64,0,0,1-31.75-10c-15.58-11.47-21.46-14.12-21.46-14.12l1.76,6.77-9.11-5s-41.75,100.1,0,148.4l.1.11A77.31,77.31,0,0,0,234.18,387,77.32,77.32,0,0,0,386.6,372.72C392.67,324.09,369.05,267.43,369.05,267.43Z" class="cls-1"></path><path d="M256.86,367.17a56.42,56.42,0,1,0,56.42-56.42A56.41,56.41,0,0,0,256.86,367.17Z" class="cls-4"></path><path d="M211.5,367.17a56.42,56.42,0,1,1-56.42-56.42A56.41,56.41,0,0,1,211.5,367.17Z" class="cls-4"></path><path d="M334,577.32a97.94,97.94,0,0,0,3.49-25.94c0-55.56-46.25-100.6-103.31-100.6s-103.32,45-103.32,100.6a98,98,0,0,0,3.53,26.06c28.62,21.76,63.34,29.15,99.79,28.87C269.7,606.59,305.07,599.18,334,577.32Z" class="cls-5"></path><path d="M334,577.32a97.94,97.94,0,0,0,3.49-25.94c0-55.56-46.25-100.6-103.31-100.6s-103.32,45-103.32,100.6a98,98,0,0,0,3.53,26.06c28.62,21.76,63.34,29.15,99.79,28.87C269.7,606.59,305.07,599.18,334,577.32Z" class="cls-1"></path><g class="cls-6"><polygon points="185.04 488.3 164.15 488.3 174.82 498.98 185.04 488.3" class="cls-7"></polygon><polygon points="208.38 488.3 187.49 488.3 198.17 498.98 208.38 488.3" class="cls-7"></polygon><polygon points="231.72 488.3 210.84 488.3 221.51 498.98 231.72 488.3" class="cls-7"></polygon><polygon points="255.07 488.3 234.18 488.3 244.85 498.98 255.07 488.3" class="cls-7"></polygon><polygon points="278.41 488.3 257.52 488.3 268.19 498.98 278.41 488.3" class="cls-7"></polygon><polygon points="301.75 488.3 280.86 488.3 291.53 498.98 301.75 488.3" class="cls-7"></polygon><polygon points="325.09 488.3 304.2 488.3 314.87 498.98 325.09 488.3" class="cls-7"></polygon><polygon points="161.7 488.3 140.81 488.3 151.48 498.98 161.7 488.3" class="cls-7"></polygon><polygon points="196.71 474.34 175.82 474.34 186.5 485.01 196.71 474.34" class="cls-7"></polygon><polygon points="220.05 474.34 199.16 474.34 209.84 485.01 220.05 474.34" class="cls-7"></polygon><polygon points="243.4 474.34 222.5 474.34 233.18 485.01 243.4 474.34" class="cls-7"></polygon><polygon points="266.74 474.34 245.84 474.34 256.52 485.01 266.74 474.34" class="cls-7"></polygon><polygon points="290.08 474.34 269.19 474.34 279.86 485.01 290.08 474.34" class="cls-7"></polygon><polygon points="313.42 474.34 292.53 474.34 303.2 485.01 313.42 474.34" class="cls-7"></polygon><polygon points="173.37 474.34 152.48 474.34 163.15 485.01 173.37 474.34" class="cls-7"></polygon><polygon points="360.1 474.34 339.21 474.34 349.89 485.01 360.1 474.34" class="cls-7"></polygon><polygon points="173.37 446.42 152.48 446.42 163.16 457.09 173.37 446.42" class="cls-7"></polygon><polygon points="196.71 446.42 175.82 446.42 186.5 457.09 196.71 446.42" class="cls-7"></polygon><polygon points="220.05 446.42 199.16 446.42 209.84 457.09 220.05 446.42" class="cls-7"></polygon><polygon points="243.4 446.42 222.5 446.42 233.18 457.09 243.4 446.42" class="cls-7"></polygon><polygon points="266.74 446.42 245.84 446.42 256.52 457.09 266.74 446.42" class="cls-7"></polygon><polygon points="290.08 446.42 269.19 446.42 279.87 457.09 290.08 446.42" class="cls-7"></polygon><polygon points="313.42 446.42 292.53 446.42 303.2 457.09 313.42 446.42" class="cls-7"></polygon><polygon points="150.03 446.42 129.14 446.42 139.81 457.09 150.03 446.42" class="cls-7"></polygon><polygon points="360.1 446.42 339.21 446.42 349.89 457.09 360.1 446.42" class="cls-7"></polygon><polygon points="336.76 446.42 315.87 446.42 326.55 457.09 336.76 446.42" class="cls-7"></polygon><polygon points="185.04 460.38 164.15 460.38 174.82 471.05 185.04 460.38" class="cls-7"></polygon><polygon points="208.38 460.38 187.49 460.38 198.17 471.05 208.38 460.38" class="cls-7"></polygon><polygon points="231.72 460.38 210.84 460.38 221.51 471.05 231.72 460.38" class="cls-7"></polygon><polygon points="255.07 460.38 234.18 460.38 244.85 471.05 255.07 460.38" class="cls-7"></polygon><polygon points="278.41 460.38 257.52 460.38 268.19 471.05 278.41 460.38" class="cls-7"></polygon><polygon points="301.75 460.38 280.86 460.38 291.53 471.05 301.75 460.38" class="cls-7"></polygon><polygon points="161.7 460.38 140.81 460.38 151.48 471.05 161.7 460.38" class="cls-7"></polygon><polygon points="371.77 460.38 350.88 460.38 361.56 471.05 371.77 460.38" class="cls-7"></polygon><polygon points="348.43 460.38 327.54 460.38 338.22 471.05 348.43 460.38" class="cls-7"></polygon><polygon points="183.81 544.15 162.92 544.15 173.6 554.83 183.81 544.15" class="cls-7"></polygon><polygon points="207.16 544.15 186.26 544.15 196.94 554.83 207.16 544.15" class="cls-7"></polygon><polygon points="230.5 544.15 209.61 544.15 220.28 554.83 230.5 544.15" class="cls-7"></polygon><polygon points="253.84 544.15 232.95 544.15 243.62 554.83 253.84 544.15" class="cls-7"></polygon><polygon points="277.18 544.15 256.29 544.15 266.97 554.83 277.18 544.15" class="cls-7"></polygon><polygon points="300.52 544.15 279.63 544.15 290.31 554.83 300.52 544.15" class="cls-7"></polygon><polygon points="323.87 544.15 302.98 544.15 313.65 554.83 323.87 544.15" class="cls-7"></polygon><polygon points="160.47 544.15 139.58 544.15 150.25 554.83 160.47 544.15" class="cls-7"></polygon><polygon points="137.13 544.15 116.24 544.15 126.91 554.83 137.13 544.15" class="cls-7"></polygon><polygon points="370.55 544.15 349.65 544.15 360.33 554.83 370.55 544.15" class="cls-7"></polygon><polygon points="347.21 544.15 326.32 544.15 336.99 554.83 347.21 544.15" class="cls-7"></polygon><polygon points="126.69 530.19 105.8 530.19 116.47 540.86 126.69 530.19" class="cls-7"></polygon><polygon points="195.48 530.19 174.6 530.19 185.27 540.86 195.48 530.19" class="cls-7"></polygon><polygon points="218.83 530.19 197.94 530.19 208.61 540.86 218.83 530.19" class="cls-7"></polygon><polygon points="242.17 530.19 221.28 530.19 231.95 540.86 242.17 530.19" class="cls-7"></polygon><polygon points="265.51 530.19 244.62 530.19 255.29 540.86 265.51 530.19" class="cls-7"></polygon><polygon points="288.85 530.19 267.96 530.19 278.63 540.86 288.85 530.19" class="cls-7"></polygon><polygon points="312.19 530.19 291.3 530.19 301.98 540.86 312.19 530.19" class="cls-7"></polygon><polygon points="335.54 530.19 314.65 530.19 325.32 540.86 335.54 530.19" class="cls-7"></polygon><polygon points="172.14 530.19 151.25 530.19 161.93 540.86 172.14 530.19" class="cls-7"></polygon><polygon points="148.8 530.19 127.91 530.19 138.59 540.86 148.8 530.19" class="cls-7"></polygon><polygon points="358.88 530.19 337.99 530.19 348.66 540.86 358.88 530.19" class="cls-7"></polygon><polygon points="125.46 502.26 104.57 502.26 115.24 512.94 125.46 502.26" class="cls-7"></polygon><polygon points="172.14 502.26 151.25 502.26 161.93 512.94 172.14 502.26" class="cls-7"></polygon><polygon points="195.48 502.26 174.6 502.26 185.27 512.94 195.48 502.26" class="cls-7"></polygon><polygon points="218.83 502.26 197.94 502.26 208.61 512.94 218.83 502.26" class="cls-7"></polygon><polygon points="242.17 502.26 221.28 502.26 231.95 512.94 242.17 502.26" class="cls-7"></polygon><polygon points="265.51 502.26 244.62 502.26 255.29 512.94 265.51 502.26" class="cls-7"></polygon><polygon points="288.85 502.26 267.96 502.26 278.64 512.94 288.85 502.26" class="cls-7"></polygon><polygon points="312.19 502.26 291.3 502.26 301.98 512.94 312.19 502.26" class="cls-7"></polygon><polygon points="148.8 502.26 127.91 502.26 138.59 512.94 148.8 502.26" class="cls-7"></polygon><polygon points="335.54 502.26 314.65 502.26 325.32 512.94 335.54 502.26" class="cls-7"></polygon><polygon points="183.81 516.22 162.92 516.22 173.6 526.9 183.81 516.22" class="cls-7"></polygon><polygon points="207.16 516.22 186.26 516.22 196.94 526.9 207.16 516.22" class="cls-7"></polygon><polygon points="230.5 516.22 209.61 516.22 220.28 526.9 230.5 516.22" class="cls-7"></polygon><polygon points="253.84 516.22 232.95 516.22 243.62 526.9 253.84 516.22" class="cls-7"></polygon><polygon points="277.18 516.22 256.29 516.22 266.97 526.9 277.18 516.22" class="cls-7"></polygon><polygon points="300.52 516.22 279.63 516.22 290.31 526.9 300.52 516.22" class="cls-7"></polygon><polygon points="323.87 516.22 302.98 516.22 313.65 526.9 323.87 516.22" class="cls-7"></polygon><polygon points="160.47 516.22 139.58 516.22 150.25 526.9 160.47 516.22" class="cls-7"></polygon><polygon points="137.13 516.22 116.24 516.22 126.91 526.9 137.13 516.22" class="cls-7"></polygon><polygon points="370.55 516.22 349.65 516.22 360.33 526.9 370.55 516.22" class="cls-7"></polygon><polygon points="347.21 516.22 326.32 516.22 336.99 526.9 347.21 516.22" class="cls-7"></polygon><polygon points="160.47 600 139.58 600 150.26 610.67 160.47 600" class="cls-7"></polygon><polygon points="183.81 600 162.92 600 173.6 610.67 183.81 600" class="cls-7"></polygon><polygon points="207.16 600 186.27 600 196.94 610.67 207.16 600" class="cls-7"></polygon><polygon points="230.5 600 209.61 600 220.28 610.67 230.5 600" class="cls-7"></polygon><polygon points="253.84 600 232.95 600 243.62 610.67 253.84 600" class="cls-7"></polygon><polygon points="277.18 600 256.29 600 266.97 610.67 277.18 600" class="cls-7"></polygon><polygon points="300.52 600 279.63 600 290.31 610.67 300.52 600" class="cls-7"></polygon><polygon points="323.87 600 302.98 600 313.65 610.67 323.87 600" class="cls-7"></polygon><polygon points="357.65 586.03 336.76 586.03 347.44 596.71 357.65 586.03" class="cls-7"></polygon><polygon points="172.15 586.03 151.26 586.03 161.93 596.71 172.15 586.03" class="cls-7"></polygon><polygon points="195.48 586.03 174.6 586.03 185.27 596.71 195.48 586.03" class="cls-7"></polygon><polygon points="218.83 586.03 197.94 586.03 208.61 596.71 218.83 586.03" class="cls-7"></polygon><polygon points="242.17 586.03 221.28 586.03 231.95 596.71 242.17 586.03" class="cls-7"></polygon><polygon points="265.51 586.03 244.62 586.03 255.29 596.71 265.51 586.03" class="cls-7"></polygon><polygon points="288.85 586.03 267.96 586.03 278.64 596.71 288.85 586.03" class="cls-7"></polygon><polygon points="312.2 586.03 291.31 586.03 301.98 596.71 312.2 586.03" class="cls-7"></polygon><polygon points="148.8 586.03 127.91 586.03 138.59 596.71 148.8 586.03" class="cls-7"></polygon><polygon points="125.46 586.03 104.57 586.03 115.25 596.71 125.46 586.03" class="cls-7"></polygon><polygon points="335.54 586.03 314.65 586.03 325.32 596.71 335.54 586.03" class="cls-7"></polygon><polygon points="358.35 558.11 337.46 558.11 348.13 568.79 358.35 558.11" class="cls-7"></polygon><polygon points="148.8 558.11 127.91 558.11 138.59 568.79 148.8 558.11" class="cls-7"></polygon><polygon points="172.15 558.11 151.26 558.11 161.93 568.79 172.15 558.11" class="cls-7"></polygon><polygon points="195.49 558.11 174.6 558.11 185.27 568.79 195.49 558.11" class="cls-7"></polygon><polygon points="218.83 558.11 197.94 558.11 208.61 568.79 218.83 558.11" class="cls-7"></polygon><polygon points="242.17 558.11 221.28 558.11 231.95 568.79 242.17 558.11" class="cls-7"></polygon><polygon points="265.51 558.11 244.62 558.11 255.3 568.79 265.51 558.11" class="cls-7"></polygon><polygon points="288.85 558.11 267.96 558.11 278.64 568.79 288.85 558.11" class="cls-7"></polygon><polygon points="125.46 558.11 104.57 558.11 115.25 568.79 125.46 558.11" class="cls-7"></polygon><polygon points="335.54 558.11 314.65 558.11 325.32 568.79 335.54 558.11" class="cls-7"></polygon><polygon points="312.2 558.11 291.31 558.11 301.98 568.79 312.2 558.11" class="cls-7"></polygon><polygon points="160.47 572.07 139.58 572.07 150.26 582.75 160.47 572.07" class="cls-7"></polygon><polygon points="183.81 572.07 162.92 572.07 173.6 582.75 183.81 572.07" class="cls-7"></polygon><polygon points="207.16 572.07 186.27 572.07 196.94 582.75 207.16 572.07" class="cls-7"></polygon><polygon points="230.5 572.07 209.61 572.07 220.28 582.75 230.5 572.07" class="cls-7"></polygon><polygon points="253.84 572.07 232.95 572.07 243.62 582.75 253.84 572.07" class="cls-7"></polygon><polygon points="277.18 572.07 256.29 572.07 266.97 582.75 277.18 572.07" class="cls-7"></polygon><polygon points="300.52 572.07 279.63 572.07 290.31 582.75 300.52 572.07" class="cls-7"></polygon><polygon points="137.13 572.07 116.24 572.07 126.91 582.75 137.13 572.07" class="cls-7"></polygon><polygon points="369.32 572.07 348.43 572.07 359.11 582.75 369.32 572.07" class="cls-7"></polygon><polygon points="347.21 572.07 326.32 572.07 336.99 582.75 347.21 572.07" class="cls-7"></polygon><polygon points="323.87 572.07 302.98 572.07 313.65 582.75 323.87 572.07" class="cls-7"></polygon></g><polygon points="213.92 391.48 234.18 419.46 234.18 372.26 213.92 391.48" class="cls-8"></polygon><polygon points="234.18 372.26 234.18 419.46 254.44 391.48 234.18 372.26" class="cls-3"></polygon><circle r="23.45" cy="367.16" cx="313.28" class="cls-9"></circle><circle r="23.45" cy="367.16" cx="159.91" class="cls-9"></circle><path d="M114.24,437.88c-7.52-12.4-31.27-10.38-35.6-10C36.09,431.48,13,476.75,11.57,479.64,8.32,486.26-9.67,522.47,7,544.86c8.23,11.08,22.17,15,30,17.25,18.43,5.22,52.24,6.95,60.89,10.86a24.94,24.94,0,0,1,7.3,5.17,20.75,20.75,0,0,1,2.85,3.91C94.88,591,90.86,595.67,91.82,597.9c1.44,3.37,14.36,1.47,14.42,2.31s-9.53.78-17.25,7c-1.82,1.49-3.23,2.72-3.09,3.76.51,3.65,23.12,4.55,37-3.76C145,594,150.8,552.33,137.45,524.59c-9.93-20.64-24.33-20.73-28.36-40.21C104.67,463,121.63,450.05,114.24,437.88Z" class="cls-7"></path><path d="M99.84,471.78c-4-5.87-23.94,0-37.42,7.68-7.25,4.16-15.5,9.44-21.61,20-.88,1.51-9.86,17.63-2.34,33.23,7.37,15.29,25,18.5,29.87,19.38a45.56,45.56,0,0,0,11.26.63c7.54.75,13.46,1.26,17.22,1.58,6.48.53,8.71.65,11.58,2.2.46.25,6.61,3.69,8.76,10.41,3.38,10.53-2.28,16.75-.93,17.69s11.56-4.25,14.39-19c3.32-17.23-13.16-35.31-22.53-46C99,509.21,94,506.93,92.75,499.11,90.63,485.56,103.33,477,99.84,471.78Z" class="cls-1"></path><path d="M338,507.48c-3.8,14,14,29.81,17.28,32.7C387.25,568.52,436,554.05,439,553.09c7-2.2,45.68-14.13,50.44-41.61,2.35-13.59-4.39-26.41-8.19-33.64-8.92-16.95-31-42.64-34.1-51.61a24.87,24.87,0,0,1-1.29-8.84,20.67,20.67,0,0,1,.87-4.77,139,139,0,0,1,16.87-4.4c25.85-5,39.64.13,41.19-4.09,2.07-5.64-19.64-22.61-30.21-18a51.66,51.66,0,0,1-12.47,4.57c-4.54,1-5.38.42-5.67.19-3.11-2.48,2.68-10.56,2-21.1-.52-8-6.29-15.94-10.06-15.58-4.3.42-3.76,11.68-8.41,22.44-13.51,31.26-41.78,26.71-55.14,54.23-10.32,21.27,2.4,31-9.59,48.26C362.81,497.11,341.75,493.74,338,507.48Z" class="cls-7"></path><path d="M372.51,494.54c-1.52,6.92,16.46,17.39,31.36,21.83,8,2.39,17.52,4.73,29.39,1.87,1.69-.41,19.56-5,25.68-21.2,6-15.88-3.84-30.88-6.54-35a45.9,45.9,0,0,0-7.31-8.6c-4.65-6-8.36-10.62-10.73-13.56-4.07-5.07-5.53-6.77-6.38-9.91-.14-.51-1.88-7.33,1.5-13.52,5.3-9.71,13.71-9.89,13.46-11.52s-11.05-5.45-23.65,2.64c-14.76,9.46-16.51,33.87-17.82,48.05-1.27,13.74.55,19-4.27,25.23C388.84,491.73,373.85,488.46,372.51,494.54Z" class="cls-1"></path><circle r="8.57" cy="358.59" cx="318.18" class="cls-4"></circle><circle r="8.57" cy="358.59" cx="168.49" class="cls-4"></circle><g class="cls-10"><polygon points="543.92 259.47 452.05 259.47 452.05 246.88 483.42 246.88 543.92 246.88 543.92 259.47" class="cls-11"></polygon><rect height="12.59" width="102.19" y="259.47" x="446.5" class="cls-11"></rect><path d="M561.61,137.07c0,29.59-13.88,55.33-34.36,68.58L523,245.06H472.33l-4.83-37.35c-22.33-12.51-37.77-39.44-37.77-70.64,0-43.14,29.52-78.11,65.94-78.11S561.61,93.93,561.61,137.07Z" class="cls-11"></path><path d="M480.23,148.76l9.26,94.45H503l8.35-80.45,1.45-14s10-7.85,10.5,4.39-14.39,9.61-14.39,9.61H475.64s-6.69-4.7-7-9.35C468.27,149.12,474,144.66,480.23,148.76Z" class="cls-11"></path><rect rx="3.36" height="41.29" width="6.72" y="4" x="491.26" class="cls-11"></rect><rect transform="translate(210.61 -384.86) rotate(45)" rx="3.36" height="41.29" width="6.72" y="41.16" x="566.51" class="cls-11"></rect><rect transform="translate(260.66 -231.74) rotate(45)" rx="3.36" height="41.29" width="6.72" y="178.13" x="406.7" class="cls-11"></rect><rect transform="matrix(0, 1, -1, 0, 733.35, -457.96)" rx="3.36" height="41.29" width="6.72" y="117.05" x="592.3" class="cls-11"></rect><rect transform="translate(1051.89 -190.94) rotate(122.22)" rx="3.36" height="41.29" width="6.72" y="174.1" x="575.26" class="cls-11"></rect><rect transform="translate(687.44 -225.52) rotate(122.22)" rx="3.36" height="41.29" width="6.72" y="56.26" x="402.58" class="cls-11"></rect><rect transform="translate(536.64 -261.25) rotate(90)" rx="3.36" height="41.29" width="6.72" y="117.05" x="395.58" class="cls-11"></rect><path d="M446.5,119.23s6-34.07,36.41-42.32" class="cls-11"></path></g></g></g></g></svg>