<svg viewBox="0 0 603.75 634.95" xmlns:xlink="http://www.w3.org/1999/xlink" xmlns="http://www.w3.org/2000/svg"><defs><style>.cls-1{fill:none;}.cls-2{isolation:isolate;}.cls-3{fill:#007e97;}.cls-4{fill:#a5d7d3;opacity:0.8;}.cls-5{fill:#f59a00;}.cls-6{fill:#009e8f;}.cls-7{fill:#d1e8ec;}.cls-16,.cls-8{fill:#fff;}.cls-9{fill:#005560;}.cls-10{clip-path:url(#clip-path);}.cls-11{fill:#686765;}.cls-12,.cls-15{fill:#fbd873;}.cls-13{fill:#727271;}.cls-14{opacity:0.5;}.cls-14,.cls-15{mix-blend-mode:multiply;}.cls-16{opacity:0.2;}.cls-17{fill:#f2f2f2;}.cls-18{fill:#dbdbdb;}</style><clipPath id="clip-path"><path d="M410,558.88a106.25,106.25,0,0,0,3.77-28.08c0-60.13-50.06-108.89-111.82-108.89S190.13,470.67,190.13,530.8A106.41,106.41,0,0,0,193.94,559c31,23.56,68.56,31.55,108,31.24C340.4,590.56,378.68,582.54,410,558.88Z" class="cls-1"></path></clipPath></defs><title>education</title><g class="cls-2"><g id="Layer_2"><g id="Layer_1-2"><g id="education"><path d="M496.39,524.83c-2.8-.41-71.09-108.81-33-156.6S595,259.35,599.62,281.59,587.23,357,554.75,367.74s55.68-.41,44,35.29-17.35,50.52-54.18,41.82-12.61,3.76-5.48,31.95S528.11,529.52,496.39,524.83Z" class="cls-3"></path><path d="M495.85,467.36C493.7,467,441.22,383.74,470.49,347s101.16-83.68,104.69-66.59-4.94,45.82-29.89,54.1,38.2,11.79,29.22,39.23-22.12,29.41-50.42,22.73-7.72,16.22-2.24,37.88S520.23,471,495.85,467.36Z" class="cls-4"></path><path d="M278.44,618.63,267.2,608.19V579.44a7,7,0,0,0-14,0v27.69a6.35,6.35,0,0,0-1.78,1.46l-10,12a6.53,6.53,0,1,0,10,8.39l2.91-3.47v2.93a6.54,6.54,0,0,0,13.07,0v-2.23l2.18,2a6.53,6.53,0,0,0,8.88-9.58Z" class="cls-5"></path><path d="M362,618.63,350.7,608.19V579.44a7,7,0,1,0-14,0v27.69a6.35,6.35,0,0,0-1.78,1.46l-10,12a6.53,6.53,0,1,0,10,8.39l2.91-3.47v2.93a6.53,6.53,0,1,0,13.06,0v-2.23l2.18,2a6.53,6.53,0,0,0,8.89-9.58Z" class="cls-5"></path><path d="M462.65,195.69C453.82,192.2,416.3,233,416.3,233,371.53,216.87,333.19,211.79,302,212.2c-31.24-.41-69.58,4.67-114.35,20.81,0,0-37.52-40.81-46.35-37.32S87.54,438.28,171.42,536.87c34.28,40.29,80.93,53,130.53,52.62,48.25.39,96.26-12.33,130.53-52.62C516.36,438.28,471.48,199.17,462.65,195.69Z" class="cls-6"></path><path d="M383.34,249.75A83.72,83.72,0,0,0,302,314a83.69,83.69,0,1,0,0,39,83.69,83.69,0,1,0,81.39-103.19Z" class="cls-7"></path><path d="M326.5,331.42a61.07,61.07,0,1,0,61.07-61.07A61.07,61.07,0,0,0,326.5,331.42Z" class="cls-8"></path><path d="M341.22,336.94a38.63,38.63,0,1,0,38.62-38.63A38.62,38.62,0,0,0,341.22,336.94Z" class="cls-9"></path><path d="M383.15,318.18a11,11,0,1,0,11-11A11,11,0,0,0,383.15,318.18Z" class="cls-8"></path><path d="M277.4,331.42a61.07,61.07,0,1,1-61.06-61.07A61.07,61.07,0,0,1,277.4,331.42Z" class="cls-8"></path><path d="M262.69,336.94a38.63,38.63,0,1,1-38.63-38.63A38.63,38.63,0,0,1,262.69,336.94Z" class="cls-9"></path><path d="M220.75,318.18a11,11,0,1,1-11-11A11,11,0,0,1,220.75,318.18Z" class="cls-8"></path><polygon points="280.02 357.74 301.95 388.02 301.95 336.94 280.02 357.74" class="cls-5"></polygon><polygon points="301.95 336.94 301.95 388.02 323.88 357.74 301.95 336.94" class="cls-5"></polygon><path d="M410,558.88a106.25,106.25,0,0,0,3.77-28.08c0-60.13-50.06-108.89-111.82-108.89S190.13,470.67,190.13,530.8A106.41,106.41,0,0,0,193.94,559c31,23.56,68.56,31.55,108,31.24C340.4,590.56,378.68,582.54,410,558.88Z" class="cls-7"></path><g class="cls-10"><polygon points="256.56 466.54 237.21 466.54 247.1 476.43 256.56 466.54" class="cls-3"></polygon><polygon points="278.18 466.54 258.83 466.54 268.72 476.43 278.18 466.54" class="cls-3"></polygon><polygon points="299.81 466.54 280.45 466.54 290.34 476.43 299.81 466.54" class="cls-3"></polygon><polygon points="321.43 466.54 302.08 466.54 311.96 476.43 321.43 466.54" class="cls-3"></polygon><polygon points="343.05 466.54 323.7 466.54 333.59 476.43 343.05 466.54" class="cls-3"></polygon><polygon points="364.67 466.54 345.32 466.54 355.21 476.43 364.67 466.54" class="cls-3"></polygon><polygon points="386.3 466.54 366.94 466.54 376.83 476.43 386.3 466.54" class="cls-3"></polygon><polygon points="234.94 466.54 215.58 466.54 225.47 476.43 234.94 466.54" class="cls-3"></polygon><polygon points="267.37 453.61 248.02 453.61 257.91 463.5 267.37 453.61" class="cls-3"></polygon><polygon points="288.99 453.61 269.64 453.61 279.53 463.5 288.99 453.61" class="cls-3"></polygon><polygon points="310.62 453.61 291.26 453.61 301.15 463.5 310.62 453.61" class="cls-3"></polygon><polygon points="332.24 453.61 312.89 453.61 322.77 463.5 332.24 453.61" class="cls-3"></polygon><polygon points="353.86 453.61 334.51 453.61 344.4 463.5 353.86 453.61" class="cls-3"></polygon><polygon points="375.48 453.61 356.13 453.61 366.02 463.5 375.48 453.61" class="cls-3"></polygon><polygon points="245.75 453.61 226.4 453.61 236.28 463.5 245.75 453.61" class="cls-3"></polygon><polygon points="418.73 453.61 399.38 453.61 409.27 463.5 418.73 453.61" class="cls-3"></polygon><polygon points="245.75 427.74 226.4 427.74 236.28 437.63 245.75 427.74" class="cls-3"></polygon><polygon points="267.37 427.74 248.02 427.74 257.91 437.63 267.37 427.74" class="cls-3"></polygon><polygon points="289 427.74 269.64 427.74 279.53 437.63 289 427.74" class="cls-3"></polygon><polygon points="310.62 427.74 291.26 427.74 301.15 437.63 310.62 427.74" class="cls-3"></polygon><polygon points="332.24 427.74 312.89 427.74 322.77 437.63 332.24 427.74" class="cls-3"></polygon><polygon points="353.86 427.74 334.51 427.74 344.4 437.63 353.86 427.74" class="cls-3"></polygon><polygon points="375.48 427.74 356.13 427.74 366.02 437.63 375.48 427.74" class="cls-3"></polygon><polygon points="224.12 427.74 204.77 427.74 214.66 437.63 224.12 427.74" class="cls-3"></polygon><polygon points="418.73 427.74 399.38 427.74 409.27 437.63 418.73 427.74" class="cls-3"></polygon><polygon points="397.11 427.74 377.76 427.74 387.65 437.63 397.11 427.74" class="cls-3"></polygon><polygon points="256.56 440.67 237.21 440.67 247.1 450.56 256.56 440.67" class="cls-3"></polygon><polygon points="278.18 440.67 258.83 440.67 268.72 450.56 278.18 440.67" class="cls-3"></polygon><polygon points="299.81 440.67 280.45 440.67 290.34 450.56 299.81 440.67" class="cls-3"></polygon><polygon points="321.43 440.67 302.08 440.67 311.96 450.56 321.43 440.67" class="cls-3"></polygon><polygon points="343.05 440.67 323.7 440.67 333.59 450.56 343.05 440.67" class="cls-3"></polygon><polygon points="364.67 440.67 345.32 440.67 355.21 450.56 364.67 440.67" class="cls-3"></polygon><polygon points="234.94 440.67 215.58 440.67 225.47 450.56 234.94 440.67" class="cls-3"></polygon><polygon points="429.54 440.67 410.19 440.67 420.08 450.56 429.54 440.67" class="cls-3"></polygon><polygon points="407.92 440.67 388.57 440.67 398.46 450.56 407.92 440.67" class="cls-3"></polygon><polygon points="255.42 518.28 236.07 518.28 245.96 528.17 255.42 518.28" class="cls-3"></polygon><polygon points="277.04 518.28 257.69 518.28 267.58 528.17 277.04 518.28" class="cls-3"></polygon><polygon points="298.67 518.28 279.32 518.28 289.21 528.17 298.67 518.28" class="cls-3"></polygon><polygon points="320.29 518.28 300.94 518.28 310.83 528.17 320.29 518.28" class="cls-3"></polygon><polygon points="341.91 518.28 322.56 518.28 332.45 528.17 341.91 518.28" class="cls-3"></polygon><polygon points="363.54 518.28 344.19 518.28 354.07 528.17 363.54 518.28" class="cls-3"></polygon><polygon points="385.16 518.28 365.81 518.28 375.7 528.17 385.16 518.28" class="cls-3"></polygon><polygon points="233.8 518.28 214.45 518.28 224.34 528.17 233.8 518.28" class="cls-3"></polygon><polygon points="212.18 518.28 192.82 518.28 202.71 528.17 212.18 518.28" class="cls-3"></polygon><polygon points="428.41 518.28 409.05 518.28 418.94 528.17 428.41 518.28" class="cls-3"></polygon><polygon points="406.78 518.28 387.43 518.28 397.32 528.17 406.78 518.28" class="cls-3"></polygon><polygon points="202.5 505.34 183.15 505.34 193.03 515.23 202.5 505.34" class="cls-3"></polygon><polygon points="266.23 505.34 246.88 505.34 256.77 515.23 266.23 505.34" class="cls-3"></polygon><polygon points="287.86 505.34 268.5 505.34 278.39 515.23 287.86 505.34" class="cls-3"></polygon><polygon points="309.48 505.34 290.13 505.34 300.02 515.23 309.48 505.34" class="cls-3"></polygon><polygon points="331.1 505.34 311.75 505.34 321.64 515.23 331.1 505.34" class="cls-3"></polygon><polygon points="352.73 505.34 333.37 505.34 343.26 515.23 352.73 505.34" class="cls-3"></polygon><polygon points="374.35 505.34 355 505.34 364.89 515.23 374.35 505.34" class="cls-3"></polygon><polygon points="395.97 505.34 376.62 505.34 386.51 515.23 395.97 505.34" class="cls-3"></polygon><polygon points="244.61 505.34 225.26 505.34 235.15 515.23 244.61 505.34" class="cls-3"></polygon><polygon points="222.99 505.34 203.64 505.34 213.53 515.23 222.99 505.34" class="cls-3"></polygon><polygon points="417.6 505.34 398.24 505.34 408.13 515.23 417.6 505.34" class="cls-3"></polygon><polygon points="201.37 479.47 182.01 479.47 191.9 489.36 201.37 479.47" class="cls-3"></polygon><polygon points="244.61 479.47 225.26 479.47 235.15 489.36 244.61 479.47" class="cls-3"></polygon><polygon points="266.23 479.47 246.88 479.47 256.77 489.36 266.23 479.47" class="cls-3"></polygon><polygon points="287.86 479.47 268.51 479.47 278.39 489.36 287.86 479.47" class="cls-3"></polygon><polygon points="309.48 479.47 290.13 479.47 300.02 489.36 309.48 479.47" class="cls-3"></polygon><polygon points="331.1 479.47 311.75 479.47 321.64 489.36 331.1 479.47" class="cls-3"></polygon><polygon points="352.73 479.47 333.38 479.47 343.26 489.36 352.73 479.47" class="cls-3"></polygon><polygon points="374.35 479.47 355 479.47 364.89 489.36 374.35 479.47" class="cls-3"></polygon><polygon points="222.99 479.47 203.64 479.47 213.53 489.36 222.99 479.47" class="cls-3"></polygon><polygon points="395.97 479.47 376.62 479.47 386.51 489.36 395.97 479.47" class="cls-3"></polygon><polygon points="255.42 492.41 236.07 492.41 245.96 502.3 255.42 492.41" class="cls-3"></polygon><polygon points="277.04 492.41 257.69 492.41 267.58 502.3 277.04 492.41" class="cls-3"></polygon><polygon points="298.67 492.41 279.32 492.41 289.21 502.3 298.67 492.41" class="cls-3"></polygon><polygon points="320.29 492.41 300.94 492.41 310.83 502.3 320.29 492.41" class="cls-3"></polygon><polygon points="341.91 492.41 322.56 492.41 332.45 502.3 341.91 492.41" class="cls-3"></polygon><polygon points="363.54 492.41 344.19 492.41 354.07 502.3 363.54 492.41" class="cls-3"></polygon><polygon points="385.16 492.41 365.81 492.41 375.7 502.3 385.16 492.41" class="cls-3"></polygon><polygon points="233.8 492.41 214.45 492.41 224.34 502.3 233.8 492.41" class="cls-3"></polygon><polygon points="212.18 492.41 192.82 492.41 202.71 502.3 212.18 492.41" class="cls-3"></polygon><polygon points="428.41 492.41 409.05 492.41 418.94 502.3 428.41 492.41" class="cls-3"></polygon><polygon points="406.78 492.41 387.43 492.41 397.32 502.3 406.78 492.41" class="cls-3"></polygon><polygon points="233.8 570.01 214.45 570.01 224.34 579.9 233.8 570.01" class="cls-3"></polygon><polygon points="255.42 570.01 236.07 570.01 245.96 579.9 255.42 570.01" class="cls-3"></polygon><polygon points="277.05 570.01 257.7 570.01 267.58 579.9 277.05 570.01" class="cls-3"></polygon><polygon points="298.67 570.01 279.32 570.01 289.21 579.9 298.67 570.01" class="cls-3"></polygon><polygon points="320.29 570.01 300.94 570.01 310.83 579.9 320.29 570.01" class="cls-3"></polygon><polygon points="341.92 570.01 322.56 570.01 332.45 579.9 341.92 570.01" class="cls-3"></polygon><polygon points="363.54 570.01 344.19 570.01 354.07 579.9 363.54 570.01" class="cls-3"></polygon><polygon points="385.16 570.01 365.81 570.01 375.7 579.9 385.16 570.01" class="cls-3"></polygon><polygon points="416.46 557.08 397.11 557.08 407 566.97 416.46 557.08" class="cls-3"></polygon><polygon points="244.61 557.08 225.26 557.08 235.15 566.97 244.61 557.08" class="cls-3"></polygon><polygon points="266.23 557.08 246.88 557.08 256.77 566.97 266.23 557.08" class="cls-3"></polygon><polygon points="287.86 557.08 268.51 557.08 278.4 566.97 287.86 557.08" class="cls-3"></polygon><polygon points="309.48 557.08 290.13 557.08 300.02 566.97 309.48 557.08" class="cls-3"></polygon><polygon points="331.1 557.08 311.75 557.08 321.64 566.97 331.1 557.08" class="cls-3"></polygon><polygon points="352.73 557.08 333.38 557.08 343.26 566.97 352.73 557.08" class="cls-3"></polygon><polygon points="374.35 557.08 355 557.08 364.89 566.97 374.35 557.08" class="cls-3"></polygon><polygon points="222.99 557.08 203.64 557.08 213.53 566.97 222.99 557.08" class="cls-3"></polygon><polygon points="201.37 557.08 182.01 557.08 191.9 566.97 201.37 557.08" class="cls-3"></polygon><polygon points="395.98 557.08 376.62 557.08 386.51 566.97 395.98 557.08" class="cls-3"></polygon><polygon points="417.1 531.21 397.75 531.21 407.64 541.1 417.1 531.21" class="cls-3"></polygon><polygon points="222.99 531.21 203.64 531.21 213.53 541.1 222.99 531.21" class="cls-3"></polygon><polygon points="244.61 531.21 225.26 531.21 235.15 541.1 244.61 531.21" class="cls-3"></polygon><polygon points="266.24 531.21 246.89 531.21 256.77 541.1 266.24 531.21" class="cls-3"></polygon><polygon points="287.86 531.21 268.51 531.21 278.39 541.1 287.86 531.21" class="cls-3"></polygon><polygon points="309.48 531.21 290.13 531.21 300.02 541.1 309.48 531.21" class="cls-3"></polygon><polygon points="331.11 531.21 311.75 531.21 321.64 541.1 331.11 531.21" class="cls-3"></polygon><polygon points="352.73 531.21 333.38 531.21 343.26 541.1 352.73 531.21" class="cls-3"></polygon><polygon points="201.37 531.21 182.01 531.21 191.9 541.1 201.37 531.21" class="cls-3"></polygon><polygon points="395.98 531.21 376.62 531.21 386.51 541.1 395.98 531.21" class="cls-3"></polygon><polygon points="374.35 531.21 355 531.21 364.89 541.1 374.35 531.21" class="cls-3"></polygon><polygon points="233.8 544.14 214.45 544.14 224.34 554.03 233.8 544.14" class="cls-3"></polygon><polygon points="255.42 544.14 236.07 544.14 245.96 554.03 255.42 544.14" class="cls-3"></polygon><polygon points="277.05 544.14 257.7 544.14 267.58 554.03 277.05 544.14" class="cls-3"></polygon><polygon points="298.67 544.14 279.32 544.14 289.21 554.03 298.67 544.14" class="cls-3"></polygon><polygon points="320.29 544.14 300.94 544.14 310.83 554.03 320.29 544.14" class="cls-3"></polygon><polygon points="341.92 544.14 322.56 544.14 332.45 554.03 341.92 544.14" class="cls-3"></polygon><polygon points="363.54 544.14 344.19 544.14 354.07 554.03 363.54 544.14" class="cls-3"></polygon><polygon points="212.18 544.14 192.83 544.14 202.71 554.03 212.18 544.14" class="cls-3"></polygon><polygon points="427.27 544.14 407.92 544.14 417.81 554.03 427.27 544.14" class="cls-3"></polygon><polygon points="406.78 544.14 387.43 544.14 397.32 554.03 406.78 544.14" class="cls-3"></polygon><polygon points="385.16 544.14 365.81 544.14 375.7 554.03 385.16 544.14" class="cls-3"></polygon></g><path d="M186.45,128.75,199,225.6s28.49,26.2,99.71,25.63,103.68-26.78,103.68-26.78l14.24-95.7L292.41,190.84Z" class="cls-11"></path><polygon points="83.91 49.56 83.91 59.81 186.45 128.75 292.41 190.84 416.6 128.75 514.59 82.6 514.59 76.91 291.84 184.58 83.91 49.56" class="cls-12"></polygon><polygon points="83.91 49.56 291.84 184.58 514.59 76.91 299.24 0 83.91 49.56" class="cls-11"></polygon><path d="M99.28,132.73a1.14,1.14,0,0,1-1.13-1c-1.76-14.12-7-60.37.2-62.75a2,2,0,0,1,2.41.66c3.77,4.09,2.17,30.58.1,56-.25,3-.44,5.45-.44,6a1.14,1.14,0,0,1-1.06,1.13ZM99,71.13c-3.1,1.07-2.43,24.13,0,48.39,2.91-38.15,1.61-47.45,0-48.39Z" class="cls-11"></path><path d="M81.63,234.14a1.09,1.09,0,0,1-.49-.11,1.14,1.14,0,0,1-.55-1.51c21.26-45.48,18.72-88.89,17.79-98.7-5.5,4.93-24,25-28.72,75.35a1.17,1.17,0,0,1-1.25,1,1.13,1.13,0,0,1-1-1.24c5.68-60.23,30.21-77.61,31.25-78.31a1.12,1.12,0,0,1,1.1-.11,1.17,1.17,0,0,1,.68.89c.06.49,6.59,49.93-17.76,102.05a1.14,1.14,0,0,1-1,.65Z" class="cls-12"></path><path d="M77.07,223.31a1.09,1.09,0,0,1-.53-.13,1.12,1.12,0,0,1-.48-1.53c12.15-23.4,19-67.13,21.26-83.64-6.27,12.84-20.25,44.15-20.25,67.64a1.15,1.15,0,0,1-2.29,0c0-30.69,23.27-74.16,23.5-74.6a1.17,1.17,0,0,1,1.34-.54,1.14,1.14,0,0,1,.8,1.21c-.07.61-7,61.51-22.35,91a1.12,1.12,0,0,1-1,.61Z" class="cls-12"></path><path d="M83.14,199.2A1.13,1.13,0,0,1,82,198.12c-1.15-19.38,14.59-62.43,15.25-64.26a1.14,1.14,0,0,1,2.14.79c-.16.44-16.23,44.44-15.12,63.34a1.14,1.14,0,0,1-1.07,1.21Z" class="cls-12"></path><path d="M205.24,34.75,298.1,12.53l81.47,29.05S324.31,67.78,205.24,34.75Z" class="cls-13"></path><g class="cls-14"><path d="M292.41,190.84l-106-62.09L199,225.6s28.49,26.2,99.71,25.63,103.68-26.78,103.68-26.78l14.24-95.7Zm103.3,14.82c-3.8,25.06-47.47,39.11-100.64,38.36s-87.35-19-89.64-37.61-8-63.42-8-63.42l92.67,53.17,113.56-49.75S399.51,180.59,395.71,205.66Z" class="cls-11"></path></g><path d="M295.44,184.76,511.54,80V82.6l-89.88,43.77L514.59,82.6V76.91L291.84,184.58,83.9,49.56V59.82l102.55,68.93,106,62.09,118.1-59-115.07,56ZM87.32,59.44l-.76-4.94L288.61,184.39l.38,3.8Z" class="cls-15"></path><polygon points="416.6 128.75 410.51 131.8 421.66 126.37 416.6 128.75" class="cls-12"></polygon><path d="M209.62,162.87s5.88,42.39,8,43.93S212.09,153.27,209.62,162.87Z" class="cls-16"></path><path d="M73.63,588.91c-6.66,8.2,33.27,5.13,72.1-11.27s73.71-83.37,44-132.86S108.33,432,108.33,432C86.46,450.2,67,483.38,44.79,502.84S6,523.34.42,531.53,45.9,538.7,45.9,538.7,11.51,550,7.08,558.17s53.24,1,53.24,1-27.73,14.34-31.06,24.59S94.7,568.42,98,566.37,80.28,580.71,73.63,588.91Z" class="cls-3"></path><path d="M128.2,544.45c8.83,5.3,29.13-31.77,32.66-36.18s1.76,4.41,3.53,14.12,14.12-9.71,15.88-37.07-14.12-40.59-14.12-40.59C142.33,428,113.2,458.85,96.43,473s-38.83,30.88-50.3,45,37.95,6.18,37.95,6.18-2.65,9.71-6.18,23,45.89-24.71,45.89-24.71S119.38,539.16,128.2,544.45Z" class="cls-4"></path><polygon points="502.36 250.68 429.51 522.65 460.45 537.23 585.28 292.43 502.36 250.68" class="cls-17"></polygon><path d="M551.21,294.49s-94.38-18-42.33-48.5,85.6,30.4,74.59,52.61S521,317,521,317L460.45,537.23s46.18,17.68,56.79,6.37S585,295.44,585,295.44" class="cls-18"></path><path d="M599.62,281.59s-64.8.57-63.09,9.41-12.78,66.21,13,71.48c15.72,0,28.2-11.55,28.2-11.55L534,393s-26.36,42.36,0,49.66,18.32,3.75,18.32,3.75L523,454.66s-38.41,46.59-12.53,67.3c15.64-1.2,16.41-3.67,16.41-3.67S624.77,452,599.62,281.59Z" class="cls-3"></path></g></g></g></g></svg>