<svg viewBox="0 0 932.95 390.63" xmlns:xlink="http://www.w3.org/1999/xlink" xmlns="http://www.w3.org/2000/svg"><defs><style>.cls-1{fill:#a5d7d3;opacity:0.8;}.cls-2{fill:#a35638;}.cls-3{fill:#6fb98f;}.cls-4{fill:#f59a00;}.cls-5{fill:#009e8f;}.cls-6{fill:#fff;}.cls-7{fill:#fab600;}.cls-8{fill:#e7e0d6;}.cls-9{clip-path:url(#clip-path);}.cls-10{fill:#007e97;}.cls-11{fill:#78521d;}.cls-12{fill:#005560;}.cls-13{fill:#383838;}.cls-14{fill:#e5dfdc;}.cls-15{clip-path:url(#clip-path-2);}.cls-16{fill:#6c4f3d;}.cls-17{clip-path:url(#clip-path-3);}</style><clipPath id="clip-path"><path d="M356.57,358.33a45.06,45.06,0,0,0,1.6-11.92c0-25.53-21.25-46.22-47.47-46.22s-47.47,20.69-47.47,46.22a44.7,44.7,0,0,0,1.62,12c13.15,10,29.1,13.39,45.85,13.26C327,371.79,343.27,368.38,356.57,358.33Z" class="cls-1"></path></clipPath><clipPath id="clip-path-2"><path d="M668.41,151.77A44.49,44.49,0,0,0,670,140.05c0-25.12-20.91-45.48-46.7-45.48s-46.7,20.36-46.7,45.48a44.53,44.53,0,0,0,1.59,11.78c12.94,9.83,28.63,13.17,45.11,13C639.34,165,655.33,161.65,668.41,151.77Z" class="cls-1"></path></clipPath><clipPath id="clip-path-3"><path d="M496.1,176.77A44.63,44.63,0,0,0,497.68,165c0-25.12-20.91-45.48-46.7-45.48s-46.7,20.36-46.7,45.48a44.13,44.13,0,0,0,1.59,11.78C418.81,186.66,434.5,190,451,189.87,467,190,483,186.64,496.1,176.77Z" class="cls-1"></path></clipPath></defs><title>launching</title><g id="Layer_2"><g id="Layer_1-2"><g id="launching"><path d="M933,225.5l-6.67,54.85s-48.64-65.86-118.92-77.62c-111.53-15.82-175.74,2.05-326,23.49-110.64,20.8-247.79,33-311,10.34s-113.92-63.1-114-80.23c32.66,30.73,97,73.88,151,78.32s108.19-.76,124.78-5.16c-13.32-4.83-53.4-9.71-90.63-29.22s-99.76-77.43-97.09-108.14c10.7,20.57,28.36,48.41,54.92,67.69C228,179.36,286.43,227.14,389.83,213S562.1,178.25,628.49,169.2s121-8.83,136.1-10.2c-4-11.19-37.62-60.24-17.66-83.5,7.28,10.52,18,63.2,44.13,77.08s67.2,18.88,91,34.61S933,225.5,933,225.5Z" class="cls-2"></path><path d="M215,245.25S185.54,273,162.86,281c-21.79,9.62-66.46,3.68-66.69-.26,11.47-.39,46.21-1.52,62.09-8.87s42.54-29.56,42.54-29.56Z" class="cls-2"></path><path d="M659,70s14.43,29,28,36.42,33.12,7.16,37.81.74-3.32-28.11-20.19-34.31S659,70,659,70Z" class="cls-3"></path><path d="M80.86,149s27.29,17.4,42.74,16.8,32.08-10.94,32.79-18.85-17.34-22.39-35-19S80.86,149,80.86,149Z" class="cls-3"></path><path d="M0,234.59s31.47-7.53,41.79-19.05S56.22,184.88,51,178.87s-28.15-3.1-38,11.94S0,234.59,0,234.59Z" class="cls-3"></path><path d="M75.15,268.88s17.82-27,17.47-42.47-10.43-32.25-18.33-33.08-22.65,17-19.56,34.68S75.15,268.88,75.15,268.88Z" class="cls-3"></path><path d="M204.2,360.74s4.93-32-1.83-45.89-22.93-25-30.46-22.41-13.51,24.88-3.31,39.66S204.2,360.74,204.2,360.74Z" class="cls-3"></path><path d="M258.74,97.07s-32.31,1.57-44.59,11-19.86,27.47-15.86,34.33,27.07,8.25,39.53-4.7S258.74,97.07,258.74,97.07Z" class="cls-3"></path><path d="M829.67,61.82S798.64,71,788.94,83s-12.8,31.39-7.3,37.11,28.27,1.62,37.3-13.91S829.67,61.82,829.67,61.82Z" class="cls-3"></path><path d="M924.77,254.05C905,252.51,885,254.7,865.11,253s-39.7-6.15-58.91-11.92a.8.8,0,0,0,0-.53c-5.78-12.79-16.14-27.83-28.29-35.27-.67-.4-1.49,1-1.09,1.49,4.31,5.62,9.8,10.34,14.39,15.77a143,143,0,0,1,12.2,17.7l-2.18-.67c-21.23-6.65-41.34-16.17-61-26.43C728,206.75,716.65,199,705.16,191.54a52.37,52.37,0,0,0-9.31-18.35c.09-.06.18-.06.27-.17,8-8.67,15.4-22.28,15.46-34.31,0-1.32-1.56-.36-1.78.35-1.58,5-2.67,10.1-4.58,15-2.52,6.48-6.57,12.07-10.17,18,0,0,0,.06,0,.09-4.94-6.19-11-11.33-17.07-13.66-.81-.32-2,1.18-1.35,1.85,5.18,5.29,11.24,9.42,16.09,15.14,3.46,4.1,5.76,8.83,8.31,13.4a252.18,252.18,0,0,0-24.42-14.17c-1.3-.64-2.8,1.91-1.69,2.79A431,431,0,0,0,740.38,221a125.91,125.91,0,0,1-10.31,22.58c-12.64-7.28-30.24-13-44.66-10.79-.52.08-1.18,1.34-.43,1.49,6.9,1.34,14,1.28,21,2.6,8.13,1.55,15.9,4.54,23.56,7.62a75.14,75.14,0,0,1-23.61,24.36c-1.48,1-1.3,4.14.81,2.77,17.13-11.13,31.53-29.22,35.47-49.67a339.4,339.4,0,0,0,50.95,22c10.65,3.55,22.06,6.93,33.84,9.78-3.6,8.5-7.34,16.64-12.64,24.29-15.74-6.5-36.9-6.13-51.27,3.7-.47.32-1,2.14,0,1.81,7.88-2.48,15.15-5.4,23.45-6.33,9-1,17.79.43,26.5,2.72h0c-6.1,8.24-14.54,13.93-21.63,21.15-.83.84-1,3.36.77,2.59,17.67-7.72,33.53-29.94,37-49.41,31.35,7.39,65.2,10.8,94.74,2.81C924.81,256.73,926.35,254.18,924.77,254.05Z" class="cls-3"></path><path d="M872.8,197.36c-2.07,5.74-3.39,11.34-6.52,16.7-2.87,4.93-7.12,8.61-11.15,12.52a137.56,137.56,0,0,0-34-59.27,22.53,22.53,0,0,1-4.78,1.92c8.1,9.28,16,18.41,22.64,29.26-23.48-.94-42-5.39-60.78-21.86-1.06-.93-2.85,1.89-1.75,2.9,16.36,15.05,41,26.38,63.59,20.84,9.37,16.15,12.88,33,17.5,50.86.21.79,1.13-.28,1.13-.73a96.67,96.67,0,0,0-3-21.94c10.25-5.35,19.89-20.18,19.48-31.66C875.06,195.16,873.14,196.44,872.8,197.36Z" class="cls-3"></path><path d="M782.42,184.54S757.91,186,750,164.22a67.89,67.89,0,0,1-3.64-26.31S788.94,148.63,782.42,184.54Z" class="cls-3"></path><path d="M806.25,290.91s-23.55-7-36.15,12.45a67.77,67.77,0,0,0-9.51,24.8S807.79,334.2,806.25,290.91Z" class="cls-3"></path><path d="M714.23,265s-12.53-12.6-27.28-4.67a49.1,49.1,0,0,0-14.65,12.44S700.15,293,714.23,265Z" class="cls-3"></path><path d="M827.12,176.12s-3.24-17.47-19.89-19.24a49,49,0,0,0-19.11,2S799.7,191.3,827.12,176.12Z" class="cls-3"></path><path d="M714.45,264.51s-20.6,6.26-20.48,26.55a59.53,59.53,0,0,0,5,22.75S736.46,295.47,714.45,264.51Z" class="cls-3"></path><path d="M826.51,173.67s-21.18-12.43-15.64-34.89a67.73,67.73,0,0,1,11.6-23.9S851.88,147.43,826.51,173.67Z" class="cls-3"></path><path d="M872,207.1s-17.81-13.64-7.72-32.34a66.82,66.82,0,0,1,16.23-19.15S902,187.79,872,207.1Z" class="cls-3"></path><path d="M793.91,223.62s-19.4,5.36-27.33-12a60,60,0,0,1-4.9-22S801.32,190.26,793.91,223.62Z" class="cls-3"></path><path d="M688.06,166.43s-19.4,5.37-27.33-12a60,60,0,0,1-4.9-22S695.47,133.07,688.06,166.43Z" class="cls-3"></path><path d="M706.63,158.73s-12.2-10.95-3.78-24a48.73,48.73,0,0,1,12.93-13S732.76,149.17,706.63,158.73Z" class="cls-3"></path><path d="M780.37,278s-9.85,17.56-27.75,11a60,60,0,0,1-19.07-12S761.88,249.22,780.37,278Z" class="cls-3"></path><path d="M708.34,236.37s-9.84,17.56-27.74,11a59.82,59.82,0,0,1-19.07-12S689.85,207.63,708.34,236.37Z" class="cls-3"></path><path d="M691.63,185s-17.49,17.64-36.61,3.93a74.2,74.2,0,0,1-18.73-20.54S679.11,144.74,691.63,185Z" class="cls-3"></path><path d="M300.72,383.7l-4.78-4.43V367.06a3,3,0,1,0-5.94,0v11.76a2.62,2.62,0,0,0-.75.62L285,384.52a2.78,2.78,0,1,0,4.25,3.57l1.23-1.48v1.24a2.78,2.78,0,1,0,5.55,0v-.94l.93.86a2.77,2.77,0,0,0,3.77-4.07Z" class="cls-4"></path><path d="M336.17,383.7l-4.78-4.43V367.06a3,3,0,1,0-5.94,0v11.76a2.92,2.92,0,0,0-.75.62l-4.26,5.08a2.78,2.78,0,1,0,4.25,3.57l1.24-1.48v1.24a2.77,2.77,0,1,0,5.54,0v-.94l.93.86a2.77,2.77,0,0,0,3.77-4.07Z" class="cls-4"></path><path d="M378.92,204.15c-3.75-1.48-19.68,15.84-19.68,15.84-19-6.85-35.28-9-48.54-8.83-13.26-.18-29.54,2-48.55,8.83,0,0-15.93-17.32-19.67-15.84s-22.8,103,12.8,144.84c14.56,17.11,34.36,22.5,55.42,22.34,20.48.16,40.86-5.23,55.41-22.34C401.72,307.14,382.67,205.63,378.92,204.15Z" class="cls-5"></path><path d="M345.25,227.1a35.54,35.54,0,0,0-34.55,27.25,35.53,35.53,0,1,0,0,16.56,35.53,35.53,0,1,0,34.55-43.81Z" class="cls-1"></path><path d="M321.12,261.77A25.93,25.93,0,1,0,347,235.85,25.92,25.92,0,0,0,321.12,261.77Z" class="cls-6"></path><path d="M300.28,261.77a25.93,25.93,0,1,1-25.93-25.92A25.92,25.92,0,0,1,300.28,261.77Z" class="cls-6"></path><polygon points="301.39 272.94 310.7 285.8 310.7 264.11 301.39 272.94" class="cls-7"></polygon><polygon points="310.7 264.11 310.7 285.8 320.01 272.94 310.7 264.11" class="cls-4"></polygon><path d="M356.57,358.33a45.06,45.06,0,0,0,1.6-11.92c0-25.53-21.25-46.22-47.47-46.22s-47.47,20.69-47.47,46.22a44.7,44.7,0,0,0,1.62,12c13.15,10,29.1,13.39,45.85,13.26C327,371.79,343.27,368.38,356.57,358.33Z" class="cls-8"></path><path d="M356.57,358.33a45.06,45.06,0,0,0,1.6-11.92c0-25.53-21.25-46.22-47.47-46.22s-47.47,20.69-47.47,46.22a44.7,44.7,0,0,0,1.62,12c13.15,10,29.1,13.39,45.85,13.26C327,371.79,343.27,368.38,356.57,358.33Z" class="cls-1"></path><g class="cls-9"><polygon points="291.43 319.13 283.21 319.13 287.41 323.33 291.43 319.13" class="cls-10"></polygon><polygon points="300.61 319.13 292.39 319.13 296.59 323.33 300.61 319.13" class="cls-10"></polygon><polygon points="309.79 319.13 301.57 319.13 305.77 323.33 309.79 319.13" class="cls-10"></polygon><polygon points="318.97 319.13 310.75 319.13 314.95 323.33 318.97 319.13" class="cls-10"></polygon><polygon points="328.15 319.13 319.93 319.13 324.13 323.33 328.15 319.13" class="cls-10"></polygon><polygon points="337.33 319.13 329.11 319.13 333.31 323.33 337.33 319.13" class="cls-10"></polygon><polygon points="346.51 319.13 338.29 319.13 342.49 323.33 346.51 319.13" class="cls-10"></polygon><polygon points="282.25 319.13 274.04 319.13 278.23 323.33 282.25 319.13" class="cls-10"></polygon><polygon points="296.02 313.64 287.8 313.64 292 317.84 296.02 313.64" class="cls-10"></polygon><polygon points="305.2 313.64 296.98 313.64 301.18 317.84 305.2 313.64" class="cls-10"></polygon><polygon points="314.38 313.64 306.16 313.64 310.36 317.84 314.38 313.64" class="cls-10"></polygon><polygon points="323.56 313.64 315.34 313.64 319.54 317.84 323.56 313.64" class="cls-10"></polygon><polygon points="332.74 313.64 324.52 313.64 328.72 317.84 332.74 313.64" class="cls-10"></polygon><polygon points="341.92 313.64 333.7 313.64 337.9 317.84 341.92 313.64" class="cls-10"></polygon><polygon points="286.84 313.64 278.62 313.64 282.82 317.84 286.84 313.64" class="cls-10"></polygon><polygon points="360.28 313.64 352.06 313.64 356.26 317.84 360.28 313.64" class="cls-11"></polygon><polygon points="286.84 302.66 278.62 302.66 282.82 306.86 286.84 302.66" class="cls-11"></polygon><polygon points="296.02 302.66 287.8 302.66 292 306.86 296.02 302.66" class="cls-10"></polygon><polygon points="305.2 302.66 296.98 302.66 301.18 306.86 305.2 302.66" class="cls-10"></polygon><polygon points="314.38 302.66 306.16 302.66 310.36 306.86 314.38 302.66" class="cls-10"></polygon><polygon points="323.56 302.66 315.34 302.66 319.54 306.86 323.56 302.66" class="cls-10"></polygon><polygon points="332.74 302.66 324.52 302.66 328.72 306.86 332.74 302.66" class="cls-10"></polygon><polygon points="341.92 302.66 333.7 302.66 337.9 306.86 341.92 302.66" class="cls-11"></polygon><polygon points="277.66 302.66 269.44 302.66 273.64 306.86 277.66 302.66" class="cls-11"></polygon><polygon points="360.28 302.66 352.06 302.66 356.26 306.86 360.28 302.66" class="cls-11"></polygon><polygon points="351.1 302.66 342.88 302.66 347.08 306.86 351.1 302.66" class="cls-11"></polygon><polygon points="291.43 308.15 283.21 308.15 287.41 312.35 291.43 308.15" class="cls-10"></polygon><polygon points="300.61 308.15 292.39 308.15 296.59 312.35 300.61 308.15" class="cls-10"></polygon><polygon points="309.79 308.15 301.57 308.15 305.77 312.35 309.79 308.15" class="cls-10"></polygon><polygon points="318.97 308.15 310.75 308.15 314.95 312.35 318.97 308.15" class="cls-10"></polygon><polygon points="328.15 308.15 319.93 308.15 324.13 312.35 328.15 308.15" class="cls-10"></polygon><polygon points="337.33 308.15 329.11 308.15 333.31 312.35 337.33 308.15" class="cls-10"></polygon><polygon points="282.25 308.15 274.04 308.15 278.23 312.35 282.25 308.15" class="cls-11"></polygon><polygon points="364.87 308.15 356.65 308.15 360.85 312.35 364.87 308.15" class="cls-11"></polygon><polygon points="355.69 308.15 347.47 308.15 351.67 312.35 355.69 308.15" class="cls-11"></polygon><polygon points="290.95 341.1 282.73 341.1 286.93 345.3 290.95 341.1" class="cls-10"></polygon><polygon points="300.13 341.1 291.91 341.1 296.11 345.3 300.13 341.1" class="cls-10"></polygon><polygon points="309.31 341.1 301.09 341.1 305.29 345.3 309.31 341.1" class="cls-10"></polygon><polygon points="318.49 341.1 310.27 341.1 314.47 345.3 318.49 341.1" class="cls-10"></polygon><polygon points="327.66 341.1 319.45 341.1 323.65 345.3 327.66 341.1" class="cls-10"></polygon><polygon points="336.84 341.1 328.63 341.1 332.83 345.3 336.84 341.1" class="cls-10"></polygon><polygon points="346.02 341.1 337.81 341.1 342 345.3 346.02 341.1" class="cls-10"></polygon><polygon points="281.76 341.1 273.55 341.1 277.75 345.3 281.76 341.1" class="cls-10"></polygon><polygon points="272.59 341.1 264.37 341.1 268.57 345.3 272.59 341.1" class="cls-10"></polygon><polygon points="364.38 341.1 356.17 341.1 360.37 345.3 364.38 341.1" class="cls-11"></polygon><polygon points="355.2 341.1 346.99 341.1 351.19 345.3 355.2 341.1" class="cls-10"></polygon><polygon points="268.48 335.61 260.26 335.61 264.46 339.8 268.48 335.61" class="cls-10"></polygon><polygon points="295.54 335.61 287.32 335.61 291.52 339.8 295.54 335.61" class="cls-10"></polygon><polygon points="304.72 335.61 296.5 335.61 300.7 339.8 304.72 335.61" class="cls-10"></polygon><polygon points="313.9 335.61 305.68 335.61 309.88 339.8 313.9 335.61" class="cls-10"></polygon><polygon points="323.07 335.61 314.86 335.61 319.06 339.8 323.07 335.61" class="cls-10"></polygon><polygon points="332.25 335.61 324.04 335.61 328.24 339.8 332.25 335.61" class="cls-10"></polygon><polygon points="341.44 335.61 333.22 335.61 337.42 339.8 341.44 335.61" class="cls-10"></polygon><polygon points="350.62 335.61 342.4 335.61 346.6 339.8 350.62 335.61" class="cls-10"></polygon><polygon points="286.36 335.61 278.14 335.61 282.34 339.8 286.36 335.61" class="cls-10"></polygon><polygon points="277.18 335.61 268.96 335.61 273.16 339.8 277.18 335.61" class="cls-10"></polygon><polygon points="359.79 335.61 351.58 335.61 355.77 339.8 359.79 335.61" class="cls-10"></polygon><polygon points="268 324.63 259.78 324.63 263.98 328.82 268 324.63" class="cls-11"></polygon><polygon points="286.36 324.63 278.14 324.63 282.34 328.82 286.36 324.63" class="cls-10"></polygon><polygon points="295.54 324.63 287.32 324.63 291.52 328.82 295.54 324.63" class="cls-10"></polygon><polygon points="304.72 324.63 296.5 324.63 300.7 328.82 304.72 324.63" class="cls-10"></polygon><polygon points="313.9 324.63 305.68 324.63 309.88 328.82 313.9 324.63" class="cls-10"></polygon><polygon points="323.07 324.63 314.86 324.63 319.06 328.82 323.07 324.63" class="cls-10"></polygon><polygon points="332.25 324.63 324.04 324.63 328.24 328.82 332.25 324.63" class="cls-10"></polygon><polygon points="341.44 324.63 333.22 324.63 337.42 328.82 341.44 324.63" class="cls-10"></polygon><polygon points="277.18 324.63 268.96 324.63 273.16 328.82 277.18 324.63" class="cls-10"></polygon><polygon points="350.62 324.63 342.4 324.63 346.6 328.82 350.62 324.63" class="cls-10"></polygon><polygon points="290.95 330.12 282.73 330.12 286.93 334.31 290.95 330.12" class="cls-10"></polygon><polygon points="300.13 330.12 291.91 330.12 296.11 334.31 300.13 330.12" class="cls-10"></polygon><polygon points="309.31 330.12 301.09 330.12 305.29 334.31 309.31 330.12" class="cls-10"></polygon><polygon points="318.49 330.12 310.27 330.12 314.47 334.31 318.49 330.12" class="cls-10"></polygon><polygon points="327.66 330.12 319.45 330.12 323.65 334.31 327.66 330.12" class="cls-10"></polygon><polygon points="336.84 330.12 328.63 330.12 332.83 334.31 336.84 330.12" class="cls-10"></polygon><polygon points="346.02 330.12 337.81 330.12 342 334.31 346.02 330.12" class="cls-10"></polygon><polygon points="281.76 330.12 273.55 330.12 277.75 334.31 281.76 330.12" class="cls-10"></polygon><polygon points="272.59 330.12 264.37 330.12 268.57 334.31 272.59 330.12" class="cls-10"></polygon><polygon points="364.38 330.12 356.17 330.12 360.37 334.31 364.38 330.12" class="cls-11"></polygon><polygon points="355.2 330.12 346.99 330.12 351.19 334.31 355.2 330.12" class="cls-10"></polygon><polygon points="281.77 363.06 273.55 363.06 277.75 367.26 281.77 363.06" class="cls-10"></polygon><polygon points="290.95 363.06 282.73 363.06 286.93 367.26 290.95 363.06" class="cls-10"></polygon><polygon points="300.13 363.06 291.91 363.06 296.11 367.26 300.13 363.06" class="cls-10"></polygon><polygon points="309.31 363.06 301.09 363.06 305.29 367.26 309.31 363.06" class="cls-10"></polygon><polygon points="318.49 363.06 310.27 363.06 314.47 367.26 318.49 363.06" class="cls-10"></polygon><polygon points="327.67 363.06 319.45 363.06 323.65 367.26 327.67 363.06" class="cls-10"></polygon><polygon points="336.85 363.06 328.63 363.06 332.83 367.26 336.85 363.06" class="cls-10"></polygon><polygon points="346.02 363.06 337.81 363.06 342.01 367.26 346.02 363.06" class="cls-10"></polygon><polygon points="359.31 357.57 351.1 357.57 355.29 361.77 359.31 357.57" class="cls-10"></polygon><polygon points="286.36 357.57 278.14 357.57 282.34 361.77 286.36 357.57" class="cls-10"></polygon><polygon points="295.54 357.57 287.32 357.57 291.52 361.77 295.54 357.57" class="cls-10"></polygon><polygon points="304.72 357.57 296.5 357.57 300.7 361.77 304.72 357.57" class="cls-10"></polygon><polygon points="313.9 357.57 305.68 357.57 309.88 361.77 313.9 357.57" class="cls-10"></polygon><polygon points="323.07 357.57 314.86 357.57 319.06 361.77 323.07 357.57" class="cls-10"></polygon><polygon points="332.25 357.57 324.04 357.57 328.24 361.77 332.25 357.57" class="cls-10"></polygon><polygon points="341.44 357.57 333.22 357.57 337.42 361.77 341.44 357.57" class="cls-10"></polygon><polygon points="277.18 357.57 268.96 357.57 273.16 361.77 277.18 357.57" class="cls-10"></polygon><polygon points="268 357.57 259.78 357.57 263.98 361.77 268 357.57" class="cls-10"></polygon><polygon points="350.62 357.57 342.4 357.57 346.6 361.77 350.62 357.57" class="cls-10"></polygon><polygon points="359.59 346.59 351.37 346.59 355.57 350.79 359.59 346.59" class="cls-10"></polygon><polygon points="277.18 346.59 268.96 346.59 273.16 350.79 277.18 346.59" class="cls-10"></polygon><polygon points="286.36 346.59 278.14 346.59 282.34 350.79 286.36 346.59" class="cls-10"></polygon><polygon points="295.54 346.59 287.32 346.59 291.52 350.79 295.54 346.59" class="cls-10"></polygon><polygon points="304.72 346.59 296.5 346.59 300.7 350.79 304.72 346.59" class="cls-10"></polygon><polygon points="313.9 346.59 305.68 346.59 309.88 350.79 313.9 346.59" class="cls-10"></polygon><polygon points="323.08 346.59 314.86 346.59 319.06 350.79 323.08 346.59" class="cls-10"></polygon><polygon points="332.25 346.59 324.04 346.59 328.24 350.79 332.25 346.59" class="cls-10"></polygon><polygon points="268 346.59 259.78 346.59 263.98 350.79 268 346.59" class="cls-10"></polygon><polygon points="350.62 346.59 342.4 346.59 346.6 350.79 350.62 346.59" class="cls-10"></polygon><polygon points="341.44 346.59 333.22 346.59 337.42 350.79 341.44 346.59" class="cls-10"></polygon><polygon points="281.77 352.08 273.55 352.08 277.75 356.28 281.77 352.08" class="cls-10"></polygon><polygon points="290.95 352.08 282.73 352.08 286.93 356.28 290.95 352.08" class="cls-10"></polygon><polygon points="300.13 352.08 291.91 352.08 296.11 356.28 300.13 352.08" class="cls-10"></polygon><polygon points="309.31 352.08 301.09 352.08 305.29 356.28 309.31 352.08" class="cls-10"></polygon><polygon points="318.49 352.08 310.27 352.08 314.47 356.28 318.49 352.08" class="cls-10"></polygon><polygon points="327.67 352.08 319.45 352.08 323.65 356.28 327.67 352.08" class="cls-10"></polygon><polygon points="336.85 352.08 328.63 352.08 332.83 356.28 336.85 352.08" class="cls-10"></polygon><polygon points="272.59 352.08 264.37 352.08 268.57 356.28 272.59 352.08" class="cls-10"></polygon><polygon points="363.9 352.08 355.69 352.08 359.88 356.28 363.9 352.08" class="cls-10"></polygon><polygon points="355.2 352.08 346.99 352.08 351.19 356.28 355.2 352.08" class="cls-10"></polygon><polygon points="346.02 352.08 337.81 352.08 342.01 356.28 346.02 352.08" class="cls-10"></polygon></g><path d="M260.88,270.46c0-.24,0-.48,0-.72a11.24,11.24,0,0,1,22.48,0c0,.24,0,.48,0,.72h5.43c0-.24,0-.48,0-.72a16.66,16.66,0,0,0-33.32,0c0,.24,0,.48,0,.72Z" class="cls-12"></path><path d="M338,270.46c0-.24,0-.48,0-.72a11.24,11.24,0,0,1,22.48,0c0,.24,0,.48,0,.72h5.42c0-.24,0-.48,0-.72a16.66,16.66,0,1,0-33.32,0c0,.24,0,.48,0,.72Z" class="cls-12"></path><path d="M238.05,359.28c1.06-.19,25.58-42.5,10.38-60.18S196.69,259.43,195.25,268s1.17,27.47,13.71,31.12-16.62,1.73-11.66,15.18,7.33,19,21.25,15.19,4.86,1.26,2.54,12.11S226,361.52,238.05,359.28Z" class="cls-10"></path><path d="M237.89,348.42c.81-.16,19.66-32.66,8-46.25S206.11,271.68,205,278.25s2.53,17.4,12.16,20.21-14.4,5-10.59,15.37,8.85,10.91,19.55,8,3.18,6.08,1.39,14.41S228.64,350.14,237.89,348.42Z" class="cls-1"></path><path d="M379.65,349.57c-1-.48-12.93-47.89,6.54-60.73s60.64-23.95,59.67-15.33-13.4,25.88-26.46,26,20.25,6.43,11.79,18-12.27,16.28-24.6,8.77-5-.12-5.77,10.95S390.61,355,379.65,349.57Z" class="cls-10"></path><path d="M380.48,339.59c-.74-.37-9.94-36.8,5-46.66s46.61-18.4,45.86-11.79-7.2,16-17.24,16.1,12.47,8.79,6,17.69-11.51,8.06-21,2.29-4.72,5-5.3,13.48S388.9,343.78,380.48,339.59Z" class="cls-1"></path><path d="M613.46,176.72l-4.7-4.35v-12a2.92,2.92,0,1,0-5.84,0v11.56a2.71,2.71,0,0,0-.74.61l-4.2,5a2.73,2.73,0,0,0,4.19,3.5l1.21-1.45v1.22a2.73,2.73,0,1,0,5.46,0v-.93l.91.85a2.73,2.73,0,0,0,3.71-4Z" class="cls-4"></path><path d="M648.34,176.72l-4.7-4.35v-12a2.93,2.93,0,0,0-5.85,0v11.56a3,3,0,0,0-.74.61l-4.19,5a2.73,2.73,0,0,0,4.19,3.5l1.21-1.45v1.22a2.73,2.73,0,1,0,5.46,0v-.93l.91.85a2.73,2.73,0,0,0,3.71-4Z" class="cls-4"></path><path d="M690.39.09C686.7-1.37,671,15.68,671,15.68,652.34,8.93,636.33,6.81,623.28,7c-13-.18-29.06,1.94-47.76,8.69,0,0-15.67-17-19.35-15.59s-22.44,101.32,12.59,142.49c14.32,16.83,33.8,22.14,54.52,22,20.15.17,40.2-5.14,54.51-22C712.82,101.41,694.08,1.54,690.39.09Z" class="cls-5"></path><path d="M657.27,22.67a35,35,0,0,0-34,26.81,35,35,0,1,0,0,16.28,35,35,0,1,0,34-43.09Z" class="cls-1"></path><path d="M633.53,56.78A25.51,25.51,0,1,0,659,31.27,25.5,25.5,0,0,0,633.53,56.78Z" class="cls-6"></path><path d="M642.65,58.76A18.26,18.26,0,1,0,660.9,40.51,18.26,18.26,0,0,0,642.65,58.76Z" class="cls-13"></path><path d="M657.19,51.25a4.61,4.61,0,1,0,4.61-4.61A4.61,4.61,0,0,0,657.19,51.25Z" class="cls-6"></path><path d="M613,56.78a25.51,25.51,0,1,1-25.51-25.51A25.51,25.51,0,0,1,613,56.78Z" class="cls-6"></path><path d="M605.53,58.76a18.26,18.26,0,1,1-18.25-18.25A18.26,18.26,0,0,1,605.53,58.76Z" class="cls-13"></path><path d="M589.37,51.25a4.61,4.61,0,1,1-4.61-4.61A4.61,4.61,0,0,1,589.37,51.25Z" class="cls-6"></path><polygon points="614.12 67.77 623.28 80.42 623.28 59.08 614.12 67.77" class="cls-7"></polygon><polygon points="623.28 59.08 623.28 80.42 632.44 67.77 623.28 59.08" class="cls-4"></polygon><path d="M668.41,151.77A44.49,44.49,0,0,0,670,140.05c0-25.12-20.91-45.48-46.7-45.48s-46.7,20.36-46.7,45.48a44.53,44.53,0,0,0,1.59,11.78c12.94,9.83,28.63,13.17,45.11,13C639.34,165,655.33,161.65,668.41,151.77Z" class="cls-14"></path><path d="M668.41,151.77A44.49,44.49,0,0,0,670,140.05c0-25.12-20.91-45.48-46.7-45.48s-46.7,20.36-46.7,45.48a44.53,44.53,0,0,0,1.59,11.78c12.94,9.83,28.63,13.17,45.11,13C639.34,165,655.33,161.65,668.41,151.77Z" class="cls-1"></path><g class="cls-15"><polygon points="604.32 113.21 596.24 113.21 600.37 117.34 604.32 113.21" class="cls-10"></polygon><polygon points="613.35 113.21 605.27 113.21 609.4 117.34 613.35 113.21" class="cls-10"></polygon><polygon points="622.38 113.21 614.3 113.21 618.43 117.34 622.38 113.21" class="cls-10"></polygon><polygon points="631.41 113.21 623.33 113.21 627.46 117.34 631.41 113.21" class="cls-10"></polygon><polygon points="640.45 113.21 632.36 113.21 636.49 117.34 640.45 113.21" class="cls-10"></polygon><polygon points="649.48 113.21 641.39 113.21 645.52 117.34 649.48 113.21" class="cls-10"></polygon><polygon points="658.51 113.21 650.42 113.21 654.55 117.34 658.51 113.21" class="cls-10"></polygon><polygon points="595.29 113.21 587.21 113.21 591.34 117.34 595.29 113.21" class="cls-10"></polygon><polygon points="608.84 107.81 600.75 107.81 604.88 111.94 608.84 107.81" class="cls-10"></polygon><polygon points="617.87 107.81 609.78 107.81 613.92 111.94 617.87 107.81" class="cls-10"></polygon><polygon points="626.9 107.81 618.82 107.81 622.95 111.94 626.9 107.81" class="cls-10"></polygon><polygon points="635.93 107.81 627.85 107.81 631.98 111.94 635.93 107.81" class="cls-10"></polygon><polygon points="644.96 107.81 636.88 107.81 641.01 111.94 644.96 107.81" class="cls-10"></polygon><polygon points="653.99 107.81 645.91 107.81 650.04 111.94 653.99 107.81" class="cls-10"></polygon><polygon points="599.81 107.81 591.73 107.81 595.85 111.94 599.81 107.81" class="cls-10"></polygon><polygon points="672.05 107.81 663.97 107.81 668.1 111.94 672.05 107.81" class="cls-16"></polygon><polygon points="599.81 97 591.73 97 595.86 101.13 599.81 97" class="cls-16"></polygon><polygon points="608.84 97 600.75 97 604.88 101.13 608.84 97" class="cls-10"></polygon><polygon points="617.87 97 609.78 97 613.92 101.13 617.87 97" class="cls-10"></polygon><polygon points="626.9 97 618.82 97 622.95 101.13 626.9 97" class="cls-10"></polygon><polygon points="635.93 97 627.85 97 631.98 101.13 635.93 97" class="cls-10"></polygon><polygon points="644.96 97 636.88 97 641.01 101.13 644.96 97" class="cls-10"></polygon><polygon points="653.99 97 645.91 97 650.04 101.13 653.99 97" class="cls-16"></polygon><polygon points="590.78 97 582.7 97 586.82 101.13 590.78 97" class="cls-16"></polygon><polygon points="672.05 97 663.97 97 668.1 101.13 672.05 97" class="cls-16"></polygon><polygon points="663.02 97 654.94 97 659.07 101.13 663.02 97" class="cls-16"></polygon><polygon points="604.32 102.4 596.24 102.4 600.37 106.53 604.32 102.4" class="cls-10"></polygon><polygon points="613.35 102.4 605.27 102.4 609.4 106.53 613.35 102.4" class="cls-10"></polygon><polygon points="622.38 102.4 614.3 102.4 618.43 106.53 622.38 102.4" class="cls-10"></polygon><polygon points="631.41 102.4 623.33 102.4 627.46 106.53 631.41 102.4" class="cls-10"></polygon><polygon points="640.45 102.4 632.36 102.4 636.49 106.53 640.45 102.4" class="cls-10"></polygon><polygon points="649.48 102.4 641.39 102.4 645.52 106.53 649.48 102.4" class="cls-10"></polygon><polygon points="595.29 102.4 587.21 102.4 591.34 106.53 595.29 102.4" class="cls-16"></polygon><polygon points="676.57 102.4 668.49 102.4 672.62 106.53 676.57 102.4" class="cls-16"></polygon><polygon points="667.54 102.4 659.46 102.4 663.59 106.53 667.54 102.4" class="cls-16"></polygon><polygon points="603.85 134.81 595.77 134.81 599.89 138.94 603.85 134.81" class="cls-10"></polygon><polygon points="612.88 134.81 604.8 134.81 608.93 138.94 612.88 134.81" class="cls-10"></polygon><polygon points="621.91 134.81 613.83 134.81 617.96 138.94 621.91 134.81" class="cls-10"></polygon><polygon points="630.94 134.81 622.86 134.81 626.99 138.94 630.94 134.81" class="cls-10"></polygon><polygon points="639.97 134.81 631.89 134.81 636.02 138.94 639.97 134.81" class="cls-10"></polygon><polygon points="649 134.81 640.92 134.81 645.05 138.94 649 134.81" class="cls-10"></polygon><polygon points="658.03 134.81 649.95 134.81 654.08 138.94 658.03 134.81" class="cls-10"></polygon><polygon points="594.82 134.81 586.74 134.81 590.86 138.94 594.82 134.81" class="cls-10"></polygon><polygon points="585.79 134.81 577.7 134.81 581.83 138.94 585.79 134.81" class="cls-10"></polygon><polygon points="676.09 134.81 668.01 134.81 672.14 138.94 676.09 134.81" class="cls-16"></polygon><polygon points="667.06 134.81 658.98 134.81 663.11 138.94 667.06 134.81" class="cls-10"></polygon><polygon points="581.75 129.41 573.66 129.41 577.79 133.54 581.75 129.41" class="cls-10"></polygon><polygon points="608.36 129.41 600.28 129.41 604.41 133.54 608.36 129.41" class="cls-10"></polygon><polygon points="617.39 129.41 609.31 129.41 613.44 133.54 617.39 129.41" class="cls-10"></polygon><polygon points="626.43 129.41 618.34 129.41 622.47 133.54 626.43 129.41" class="cls-10"></polygon><polygon points="635.45 129.41 627.37 129.41 631.5 133.54 635.45 129.41" class="cls-10"></polygon><polygon points="644.48 129.41 636.4 129.41 640.53 133.54 644.48 129.41" class="cls-10"></polygon><polygon points="653.52 129.41 645.43 129.41 649.56 133.54 653.52 129.41" class="cls-10"></polygon><polygon points="662.55 129.41 654.47 129.41 658.6 133.54 662.55 129.41" class="cls-10"></polygon><polygon points="599.33 129.41 591.25 129.41 595.38 133.54 599.33 129.41" class="cls-10"></polygon><polygon points="590.3 129.41 582.22 129.41 586.35 133.54 590.3 129.41" class="cls-10"></polygon><polygon points="671.58 129.41 663.5 129.41 667.62 133.54 671.58 129.41" class="cls-10"></polygon><polygon points="581.27 118.61 573.19 118.61 577.32 122.74 581.27 118.61" class="cls-16"></polygon><polygon points="599.33 118.61 591.25 118.61 595.38 122.74 599.33 118.61" class="cls-10"></polygon><polygon points="608.36 118.61 600.28 118.61 604.41 122.74 608.36 118.61" class="cls-10"></polygon><polygon points="617.39 118.61 609.31 118.61 613.44 122.74 617.39 118.61" class="cls-10"></polygon><polygon points="626.43 118.61 618.34 118.61 622.47 122.74 626.43 118.61" class="cls-10"></polygon><polygon points="635.45 118.61 627.37 118.61 631.5 122.74 635.45 118.61" class="cls-10"></polygon><polygon points="644.48 118.61 636.4 118.61 640.53 122.74 644.48 118.61" class="cls-10"></polygon><polygon points="653.52 118.61 645.43 118.61 649.56 122.74 653.52 118.61" class="cls-10"></polygon><polygon points="590.3 118.61 582.22 118.61 586.35 122.74 590.3 118.61" class="cls-10"></polygon><polygon points="662.55 118.61 654.47 118.61 658.6 122.74 662.55 118.61" class="cls-10"></polygon><polygon points="603.85 124.01 595.77 124.01 599.89 128.14 603.85 124.01" class="cls-10"></polygon><polygon points="612.88 124.01 604.8 124.01 608.93 128.14 612.88 124.01" class="cls-10"></polygon><polygon points="621.91 124.01 613.83 124.01 617.96 128.14 621.91 124.01" class="cls-10"></polygon><polygon points="630.94 124.01 622.86 124.01 626.99 128.14 630.94 124.01" class="cls-10"></polygon><polygon points="639.97 124.01 631.89 124.01 636.02 128.14 639.97 124.01" class="cls-10"></polygon><polygon points="649 124.01 640.92 124.01 645.05 128.14 649 124.01" class="cls-10"></polygon><polygon points="658.03 124.01 649.95 124.01 654.08 128.14 658.03 124.01" class="cls-10"></polygon><polygon points="594.82 124.01 586.74 124.01 590.86 128.14 594.82 124.01" class="cls-10"></polygon><polygon points="585.79 124.01 577.7 124.01 581.83 128.14 585.79 124.01" class="cls-10"></polygon><polygon points="676.09 124.01 668.01 124.01 672.14 128.14 676.09 124.01" class="cls-16"></polygon><polygon points="667.06 124.01 658.98 124.01 663.11 128.14 667.06 124.01" class="cls-10"></polygon><polygon points="594.82 156.42 586.74 156.42 590.87 160.55 594.82 156.42" class="cls-10"></polygon><polygon points="603.85 156.42 595.77 156.42 599.89 160.55 603.85 156.42" class="cls-10"></polygon><polygon points="612.88 156.42 604.8 156.42 608.93 160.55 612.88 156.42" class="cls-10"></polygon><polygon points="621.91 156.42 613.83 156.42 617.96 160.55 621.91 156.42" class="cls-10"></polygon><polygon points="630.94 156.42 622.86 156.42 626.99 160.55 630.94 156.42" class="cls-10"></polygon><polygon points="639.97 156.42 631.89 156.42 636.02 160.55 639.97 156.42" class="cls-10"></polygon><polygon points="649 156.42 640.92 156.42 645.05 160.55 649 156.42" class="cls-10"></polygon><polygon points="658.03 156.42 649.95 156.42 654.08 160.55 658.03 156.42" class="cls-10"></polygon><polygon points="671.1 151.02 663.02 151.02 667.15 155.15 671.1 151.02" class="cls-10"></polygon><polygon points="599.33 151.02 591.25 151.02 595.38 155.15 599.33 151.02" class="cls-10"></polygon><polygon points="608.36 151.02 600.28 151.02 604.41 155.15 608.36 151.02" class="cls-10"></polygon><polygon points="617.39 151.02 609.31 151.02 613.44 155.15 617.39 151.02" class="cls-10"></polygon><polygon points="626.43 151.02 618.34 151.02 622.47 155.15 626.43 151.02" class="cls-10"></polygon><polygon points="635.45 151.02 627.37 151.02 631.5 155.15 635.45 151.02" class="cls-10"></polygon><polygon points="644.48 151.02 636.4 151.02 640.53 155.15 644.48 151.02" class="cls-10"></polygon><polygon points="653.52 151.02 645.43 151.02 649.56 155.15 653.52 151.02" class="cls-10"></polygon><polygon points="590.3 151.02 582.22 151.02 586.35 155.15 590.3 151.02" class="cls-10"></polygon><polygon points="581.27 151.02 573.19 151.02 577.32 155.15 581.27 151.02" class="cls-10"></polygon><polygon points="662.55 151.02 654.47 151.02 658.6 155.15 662.55 151.02" class="cls-10"></polygon><polygon points="671.37 140.22 663.29 140.22 667.42 144.35 671.37 140.22" class="cls-10"></polygon><polygon points="590.3 140.22 582.22 140.22 586.35 144.35 590.3 140.22" class="cls-10"></polygon><polygon points="599.33 140.22 591.25 140.22 595.38 144.35 599.33 140.22" class="cls-10"></polygon><polygon points="608.37 140.22 600.28 140.22 604.41 144.35 608.37 140.22" class="cls-10"></polygon><polygon points="617.39 140.22 609.31 140.22 613.44 144.35 617.39 140.22" class="cls-10"></polygon><polygon points="626.43 140.22 618.34 140.22 622.47 144.35 626.43 140.22" class="cls-10"></polygon><polygon points="635.46 140.22 627.37 140.22 631.5 144.35 635.46 140.22" class="cls-10"></polygon><polygon points="644.48 140.22 636.4 140.22 640.53 144.35 644.48 140.22" class="cls-10"></polygon><polygon points="581.27 140.22 573.19 140.22 577.32 144.35 581.27 140.22" class="cls-10"></polygon><polygon points="662.55 140.22 654.47 140.22 658.6 144.35 662.55 140.22" class="cls-10"></polygon><polygon points="653.52 140.22 645.43 140.22 649.57 144.35 653.52 140.22" class="cls-10"></polygon><polygon points="594.82 145.62 586.74 145.62 590.87 149.75 594.82 145.62" class="cls-10"></polygon><polygon points="603.85 145.62 595.77 145.62 599.89 149.75 603.85 145.62" class="cls-10"></polygon><polygon points="612.88 145.62 604.8 145.62 608.93 149.75 612.88 145.62" class="cls-10"></polygon><polygon points="621.91 145.62 613.83 145.62 617.96 149.75 621.91 145.62" class="cls-10"></polygon><polygon points="630.94 145.62 622.86 145.62 626.99 149.75 630.94 145.62" class="cls-10"></polygon><polygon points="639.97 145.62 631.89 145.62 636.02 149.75 639.97 145.62" class="cls-10"></polygon><polygon points="649 145.62 640.92 145.62 645.05 149.75 649 145.62" class="cls-10"></polygon><polygon points="585.79 145.62 577.7 145.62 581.83 149.75 585.79 145.62" class="cls-10"></polygon><polygon points="675.62 145.62 667.54 145.62 671.66 149.75 675.62 145.62" class="cls-10"></polygon><polygon points="667.06 145.62 658.98 145.62 663.11 149.75 667.06 145.62" class="cls-10"></polygon><polygon points="658.03 145.62 649.95 145.62 654.08 149.75 658.03 145.62" class="cls-10"></polygon></g><path d="M575.09,154.22s-55.8-21.07-26.68-84.47C548.41,69.75,594.8,119.5,575.09,154.22Z" class="cls-10"></path><path d="M672.68,154.22s55.8-21.07,26.68-84.47C699.36,69.75,653,119.5,672.68,154.22Z" class="cls-10"></path><path d="M441.16,201.72l-4.7-4.36v-12a2.92,2.92,0,1,0-5.84,0v11.57a2.55,2.55,0,0,0-.75.61l-4.19,5a2.73,2.73,0,0,0,4.19,3.5l1.21-1.45v1.23a2.73,2.73,0,0,0,5.46,0v-.94l.91.85a2.73,2.73,0,0,0,3.71-4Z" class="cls-4"></path><path d="M476,201.72l-4.69-4.36v-12a2.93,2.93,0,0,0-5.85,0v11.57a2.51,2.51,0,0,0-.74.61l-4.19,5a2.73,2.73,0,0,0,4.18,3.5l1.22-1.45v1.23a2.73,2.73,0,0,0,5.45,0v-.94l.91.85a2.73,2.73,0,1,0,3.71-4Z" class="cls-4"></path><path d="M518.09,25.08c-3.69-1.46-19.36,15.59-19.36,15.59C480,33.93,464,31.81,451,32c-13.05-.17-29.06,1.95-47.76,8.69,0,0-15.67-17-19.36-15.59s-22.43,101.32,12.6,142.49c14.32,16.83,33.8,22.14,54.52,22,20.15.16,40.2-5.15,54.51-22C540.52,126.4,521.78,26.54,518.09,25.08Z" class="cls-5"></path><path d="M485,47.66a35,35,0,0,0-34,26.81,35,35,0,1,0,0,16.29,35,35,0,1,0,34-43.1Z" class="cls-1"></path><path d="M461.23,81.77a25.5,25.5,0,1,0,25.5-25.51A25.5,25.5,0,0,0,461.23,81.77Z" class="cls-6"></path><path d="M470.34,83.75A18.26,18.26,0,1,0,488.6,65.5,18.26,18.26,0,0,0,470.34,83.75Z" class="cls-13"></path><path d="M484.89,76.24a4.61,4.61,0,1,0,4.61-4.61A4.61,4.61,0,0,0,484.89,76.24Z" class="cls-6"></path><path d="M440.72,81.77a25.5,25.5,0,1,1-25.5-25.51A25.5,25.5,0,0,1,440.72,81.77Z" class="cls-6"></path><path d="M433.23,83.75A18.26,18.26,0,1,1,415,65.5,18.25,18.25,0,0,1,433.23,83.75Z" class="cls-13"></path><path d="M417.06,76.24a4.61,4.61,0,1,1-4.6-4.61A4.61,4.61,0,0,1,417.06,76.24Z" class="cls-6"></path><polygon points="441.82 92.76 450.98 105.41 450.98 84.07 441.82 92.76" class="cls-7"></polygon><polygon points="450.98 84.07 450.98 105.41 460.14 92.76 450.98 84.07" class="cls-4"></polygon><path d="M496.1,176.77A44.63,44.63,0,0,0,497.68,165c0-25.12-20.91-45.48-46.7-45.48s-46.7,20.36-46.7,45.48a44.13,44.13,0,0,0,1.59,11.78C418.81,186.66,434.5,190,451,189.87,467,190,483,186.64,496.1,176.77Z" class="cls-14"></path><path d="M496.1,176.77A44.63,44.63,0,0,0,497.68,165c0-25.12-20.91-45.48-46.7-45.48s-46.7,20.36-46.7,45.48a44.13,44.13,0,0,0,1.59,11.78C418.81,186.66,434.5,190,451,189.87,467,190,483,186.64,496.1,176.77Z" class="cls-1"></path><g class="cls-17"><polygon points="432.02 138.2 423.94 138.2 428.07 142.33 432.02 138.2" class="cls-10"></polygon><polygon points="441.05 138.2 432.97 138.2 437.1 142.33 441.05 138.2" class="cls-10"></polygon><polygon points="450.08 138.2 442 138.2 446.13 142.33 450.08 138.2" class="cls-10"></polygon><polygon points="459.11 138.2 451.03 138.2 455.16 142.33 459.11 138.2" class="cls-10"></polygon><polygon points="468.14 138.2 460.06 138.2 464.19 142.33 468.14 138.2" class="cls-10"></polygon><polygon points="477.17 138.2 469.09 138.2 473.22 142.33 477.17 138.2" class="cls-10"></polygon><polygon points="486.2 138.2 478.12 138.2 482.25 142.33 486.2 138.2" class="cls-10"></polygon><polygon points="422.99 138.2 414.91 138.2 419.03 142.33 422.99 138.2" class="cls-10"></polygon><polygon points="436.53 132.8 428.45 132.8 432.58 136.93 436.53 132.8" class="cls-10"></polygon><polygon points="445.56 132.8 437.48 132.8 441.61 136.93 445.56 132.8" class="cls-10"></polygon><polygon points="454.6 132.8 446.51 132.8 450.64 136.93 454.6 132.8" class="cls-10"></polygon><polygon points="463.63 132.8 455.55 132.8 459.67 136.93 463.63 132.8" class="cls-10"></polygon><polygon points="472.66 132.8 464.57 132.8 468.7 136.93 472.66 132.8" class="cls-10"></polygon><polygon points="481.69 132.8 473.61 132.8 477.74 136.93 481.69 132.8" class="cls-10"></polygon><polygon points="427.5 132.8 419.42 132.8 423.55 136.93 427.5 132.8" class="cls-10"></polygon><polygon points="499.75 132.8 491.67 132.8 495.8 136.93 499.75 132.8" class="cls-16"></polygon><polygon points="427.5 122 419.42 122 423.55 126.13 427.5 122" class="cls-16"></polygon><polygon points="436.53 122 428.45 122 432.58 126.13 436.53 122" class="cls-10"></polygon><polygon points="445.57 122 437.48 122 441.61 126.13 445.57 122" class="cls-10"></polygon><polygon points="454.6 122 446.51 122 450.64 126.13 454.6 122" class="cls-10"></polygon><polygon points="463.63 122 455.55 122 459.67 126.13 463.63 122" class="cls-10"></polygon><polygon points="472.66 122 464.57 122 468.7 126.13 472.66 122" class="cls-10"></polygon><polygon points="481.69 122 473.61 122 477.74 126.13 481.69 122" class="cls-16"></polygon><polygon points="418.47 122 410.39 122 414.52 126.13 418.47 122" class="cls-16"></polygon><polygon points="499.75 122 491.67 122 495.8 126.13 499.75 122" class="cls-16"></polygon><polygon points="490.72 122 482.64 122 486.77 126.13 490.72 122" class="cls-16"></polygon><polygon points="432.02 127.4 423.94 127.4 428.07 131.53 432.02 127.4" class="cls-10"></polygon><polygon points="441.05 127.4 432.97 127.4 437.1 131.53 441.05 127.4" class="cls-10"></polygon><polygon points="450.08 127.4 442 127.4 446.13 131.53 450.08 127.4" class="cls-10"></polygon><polygon points="459.11 127.4 451.03 127.4 455.16 131.53 459.11 127.4" class="cls-10"></polygon><polygon points="468.14 127.4 460.06 127.4 464.19 131.53 468.14 127.4" class="cls-10"></polygon><polygon points="477.17 127.4 469.09 127.4 473.22 131.53 477.17 127.4" class="cls-10"></polygon><polygon points="422.99 127.4 414.91 127.4 419.03 131.53 422.99 127.4" class="cls-16"></polygon><polygon points="504.26 127.4 496.18 127.4 500.31 131.53 504.26 127.4" class="cls-16"></polygon><polygon points="495.23 127.4 487.15 127.4 491.28 131.53 495.23 127.4" class="cls-16"></polygon><polygon points="431.55 159.81 423.46 159.81 427.59 163.94 431.55 159.81" class="cls-10"></polygon><polygon points="440.57 159.81 432.49 159.81 436.62 163.94 440.57 159.81" class="cls-10"></polygon><polygon points="449.61 159.81 441.53 159.81 445.65 163.94 449.61 159.81" class="cls-10"></polygon><polygon points="458.64 159.81 450.55 159.81 454.68 163.94 458.64 159.81" class="cls-10"></polygon><polygon points="467.67 159.81 459.58 159.81 463.71 163.94 467.67 159.81" class="cls-10"></polygon><polygon points="476.7 159.81 468.62 159.81 472.75 163.94 476.7 159.81" class="cls-10"></polygon><polygon points="485.73 159.81 477.65 159.81 481.77 163.94 485.73 159.81" class="cls-10"></polygon><polygon points="422.51 159.81 414.43 159.81 418.56 163.94 422.51 159.81" class="cls-10"></polygon><polygon points="413.48 159.81 405.4 159.81 409.53 163.94 413.48 159.81" class="cls-10"></polygon><polygon points="503.79 159.81 495.71 159.81 499.84 163.94 503.79 159.81" class="cls-16"></polygon><polygon points="494.76 159.81 486.68 159.81 490.81 163.94 494.76 159.81" class="cls-10"></polygon><polygon points="409.44 154.41 401.36 154.41 405.49 158.53 409.44 154.41" class="cls-10"></polygon><polygon points="436.06 154.41 427.98 154.41 432.11 158.53 436.06 154.41" class="cls-10"></polygon><polygon points="445.09 154.41 437.01 154.41 441.14 158.53 445.09 154.41" class="cls-10"></polygon><polygon points="454.12 154.41 446.04 154.41 450.17 158.53 454.12 154.41" class="cls-10"></polygon><polygon points="463.15 154.41 455.07 154.41 459.2 158.53 463.15 154.41" class="cls-10"></polygon><polygon points="472.18 154.41 464.1 154.41 468.23 158.53 472.18 154.41" class="cls-10"></polygon><polygon points="481.21 154.41 473.13 154.41 477.26 158.53 481.21 154.41" class="cls-10"></polygon><polygon points="490.24 154.41 482.16 154.41 486.29 158.53 490.24 154.41" class="cls-10"></polygon><polygon points="427.03 154.41 418.95 154.41 423.08 158.53 427.03 154.41" class="cls-10"></polygon><polygon points="418 154.41 409.92 154.41 414.05 158.53 418 154.41" class="cls-10"></polygon><polygon points="499.27 154.41 491.19 154.41 495.32 158.53 499.27 154.41" class="cls-10"></polygon><polygon points="408.97 143.6 400.89 143.6 405.02 147.73 408.97 143.6" class="cls-16"></polygon><polygon points="427.03 143.6 418.95 143.6 423.08 147.73 427.03 143.6" class="cls-10"></polygon><polygon points="436.06 143.6 427.98 143.6 432.11 147.73 436.06 143.6" class="cls-10"></polygon><polygon points="445.09 143.6 437.01 143.6 441.14 147.73 445.09 143.6" class="cls-10"></polygon><polygon points="454.12 143.6 446.04 143.6 450.17 147.73 454.12 143.6" class="cls-10"></polygon><polygon points="463.15 143.6 455.07 143.6 459.2 147.73 463.15 143.6" class="cls-10"></polygon><polygon points="472.18 143.6 464.1 143.6 468.23 147.73 472.18 143.6" class="cls-10"></polygon><polygon points="481.21 143.6 473.13 143.6 477.26 147.73 481.21 143.6" class="cls-10"></polygon><polygon points="418 143.6 409.92 143.6 414.05 147.73 418 143.6" class="cls-10"></polygon><polygon points="490.24 143.6 482.16 143.6 486.29 147.73 490.24 143.6" class="cls-10"></polygon><polygon points="431.55 149 423.46 149 427.59 153.13 431.55 149" class="cls-10"></polygon><polygon points="440.57 149 432.49 149 436.62 153.13 440.57 149" class="cls-10"></polygon><polygon points="449.61 149 441.53 149 445.65 153.13 449.61 149" class="cls-10"></polygon><polygon points="458.64 149 450.55 149 454.68 153.13 458.64 149" class="cls-10"></polygon><polygon points="467.67 149 459.58 149 463.71 153.13 467.67 149" class="cls-10"></polygon><polygon points="476.7 149 468.62 149 472.75 153.13 476.7 149" class="cls-10"></polygon><polygon points="485.73 149 477.65 149 481.77 153.13 485.73 149" class="cls-10"></polygon><polygon points="422.51 149 414.43 149 418.56 153.13 422.51 149" class="cls-10"></polygon><polygon points="413.48 149 405.4 149 409.53 153.13 413.48 149" class="cls-10"></polygon><polygon points="503.79 149 495.71 149 499.84 153.13 503.79 149" class="cls-16"></polygon><polygon points="494.76 149 486.68 149 490.81 153.13 494.76 149" class="cls-10"></polygon><polygon points="422.52 181.41 414.43 181.41 418.56 185.54 422.52 181.41" class="cls-10"></polygon><polygon points="431.55 181.41 423.46 181.41 427.59 185.54 431.55 181.41" class="cls-10"></polygon><polygon points="440.58 181.41 432.49 181.41 436.62 185.54 440.58 181.41" class="cls-10"></polygon><polygon points="449.61 181.41 441.53 181.41 445.65 185.54 449.61 181.41" class="cls-10"></polygon><polygon points="458.64 181.41 450.55 181.41 454.68 185.54 458.64 181.41" class="cls-10"></polygon><polygon points="467.67 181.41 459.58 181.41 463.71 185.54 467.67 181.41" class="cls-10"></polygon><polygon points="476.7 181.41 468.62 181.41 472.75 185.54 476.7 181.41" class="cls-10"></polygon><polygon points="485.73 181.41 477.65 181.41 481.78 185.54 485.73 181.41" class="cls-10"></polygon><polygon points="498.8 176.01 490.72 176.01 494.85 180.14 498.8 176.01" class="cls-10"></polygon><polygon points="427.03 176.01 418.95 176.01 423.08 180.14 427.03 176.01" class="cls-10"></polygon><polygon points="436.06 176.01 427.98 176.01 432.11 180.14 436.06 176.01" class="cls-10"></polygon><polygon points="445.09 176.01 437.01 176.01 441.14 180.14 445.09 176.01" class="cls-10"></polygon><polygon points="454.12 176.01 446.04 176.01 450.17 180.14 454.12 176.01" class="cls-10"></polygon><polygon points="463.15 176.01 455.07 176.01 459.2 180.14 463.15 176.01" class="cls-10"></polygon><polygon points="472.18 176.01 464.1 176.01 468.23 180.14 472.18 176.01" class="cls-10"></polygon><polygon points="481.21 176.01 473.13 176.01 477.26 180.14 481.21 176.01" class="cls-10"></polygon><polygon points="418 176.01 409.92 176.01 414.05 180.14 418 176.01" class="cls-10"></polygon><polygon points="408.97 176.01 400.89 176.01 405.02 180.14 408.97 176.01" class="cls-10"></polygon><polygon points="490.25 176.01 482.16 176.01 486.29 180.14 490.25 176.01" class="cls-10"></polygon><polygon points="499.07 165.21 490.99 165.21 495.12 169.34 499.07 165.21" class="cls-10"></polygon><polygon points="418 165.21 409.92 165.21 414.05 169.34 418 165.21" class="cls-10"></polygon><polygon points="427.03 165.21 418.95 165.21 423.08 169.34 427.03 165.21" class="cls-10"></polygon><polygon points="436.06 165.21 427.98 165.21 432.11 169.34 436.06 165.21" class="cls-10"></polygon><polygon points="445.09 165.21 437.01 165.21 441.14 169.34 445.09 165.21" class="cls-10"></polygon><polygon points="454.12 165.21 446.04 165.21 450.17 169.34 454.12 165.21" class="cls-10"></polygon><polygon points="463.15 165.21 455.07 165.21 459.2 169.34 463.15 165.21" class="cls-10"></polygon><polygon points="472.18 165.21 464.1 165.21 468.23 169.34 472.18 165.21" class="cls-10"></polygon><polygon points="408.97 165.21 400.89 165.21 405.02 169.34 408.97 165.21" class="cls-10"></polygon><polygon points="490.25 165.21 482.16 165.21 486.29 169.34 490.25 165.21" class="cls-10"></polygon><polygon points="481.21 165.21 473.13 165.21 477.26 169.34 481.21 165.21" class="cls-10"></polygon><polygon points="422.52 170.61 414.43 170.61 418.56 174.74 422.52 170.61" class="cls-10"></polygon><polygon points="431.55 170.61 423.46 170.61 427.59 174.74 431.55 170.61" class="cls-10"></polygon><polygon points="440.58 170.61 432.49 170.61 436.62 174.74 440.58 170.61" class="cls-10"></polygon><polygon points="449.61 170.61 441.53 170.61 445.65 174.74 449.61 170.61" class="cls-10"></polygon><polygon points="458.64 170.61 450.55 170.61 454.68 174.74 458.64 170.61" class="cls-10"></polygon><polygon points="467.67 170.61 459.58 170.61 463.71 174.74 467.67 170.61" class="cls-10"></polygon><polygon points="476.7 170.61 468.62 170.61 472.75 174.74 476.7 170.61" class="cls-10"></polygon><polygon points="413.48 170.61 405.4 170.61 409.53 174.74 413.48 170.61" class="cls-10"></polygon><polygon points="503.32 170.61 495.23 170.61 499.36 174.74 503.32 170.61" class="cls-10"></polygon><polygon points="494.76 170.61 486.68 170.61 490.81 174.74 494.76 170.61" class="cls-10"></polygon><polygon points="485.73 170.61 477.65 170.61 481.78 174.74 485.73 170.61" class="cls-10"></polygon></g><path d="M402.79,179.21S347,158.15,376.11,94.74C376.11,94.74,422.5,144.49,402.79,179.21Z" class="cls-10"></path><path d="M500.38,179.21s55.8-21.06,26.68-84.47C527.06,94.74,480.67,144.49,500.38,179.21Z" class="cls-10"></path></g></g></g></svg>