<svg viewBox="0 0 722.13 544.23" xmlns:xlink="http://www.w3.org/1999/xlink" xmlns="http://www.w3.org/2000/svg"><defs><style>.cls-1{fill:none;}.cls-2,.cls-9{fill:#a5d7d3;}.cls-2{opacity:0.8;}.cls-3{isolation:isolate;}.cls-4{fill:#f8d590;stroke:#050505;stroke-miterlimit:10;stroke-width:6.94px;opacity:0.38;}.cls-5{fill:#f4f1ed;}.cls-6{fill:#007e97;}.cls-7{fill:#009e8f;}.cls-8{fill:#f59a00;}.cls-10{fill:#fde3d8;}.cls-11{fill:#005560;}.cls-12,.cls-23{fill:#fff;}.cls-13{fill:#616666;}.cls-14{fill:#9da0a0;}.cls-15{clip-path:url(#clip-path);}.cls-16{fill:#54a8ba;}.cls-17{clip-path:url(#clip-path-2);}.cls-18{fill:#686765;}.cls-19,.cls-22{fill:#fbd873;}.cls-20{fill:#727271;}.cls-21{opacity:0.5;}.cls-21,.cls-22{mix-blend-mode:multiply;}.cls-23{opacity:0.2;}</style><clipPath id="clip-path"><path d="M112.14,452.28l3.69,2.65q-5.92,7.56-11.83,15.13a8.9,8.9,0,0,0-2,3.63c-.55,2.81,1.68,5.44,4.12,6.93s5.3,2.38,7.39,4.34c-1.29,3-.35,6.55,1.73,9a17.26,17.26,0,0,0,8.16,4.94,33.08,33.08,0,0,0,15.5,1.05,9.09,9.09,0,0,1,3.32-.2,11.19,11.19,0,0,1,3.23,1.68c5.43,3.3,12.37,2.5,18.49.79,18.87-5.25,35.2-18.07,46.38-34.16,3.16-4.55,6-9.45,7.25-14.84s1-10.89.38-16.33c-.49-4.49-1.22-9.09-3.45-13a29,29,0,0,0-8.54-8.81,63.8,63.8,0,0,0-44.57-11.48,14.69,14.69,0,0,0-6.16,1.81,14.93,14.93,0,0,0-4.45,5.14c-4,6.53-7.06,13.71-12.23,19.34C130.68,438.42,118.65,442.69,112.14,452.28Z" class="cls-1"></path></clipPath><clipPath id="clip-path-2"><path d="M237.89,494.14a69.78,69.78,0,0,0,3.29-18.22c1.76-39.26-29.5-72.56-69.82-74.37s-74.44,28.56-76.2,67.82a69.35,69.35,0,0,0,1.66,18.53c19.54,16.28,43.84,22.61,69.61,23.56C191.52,512.79,216.75,508.67,237.89,494.14Z" class="cls-2"></path></clipPath></defs><title>subscribe</title><g class="cls-3"><g id="Layer_2"><g id="Layer_1-2"><g id="subscribe"><rect height="519.7" width="461.07" y="3.47" x="257.59" class="cls-4"></rect><rect height="26.55" width="351.01" y="57.63" x="312.62" class="cls-5"></rect><rect height="26.55" width="351.01" y="116.93" x="312.62" class="cls-5"></rect><rect height="26.55" width="351.01" y="163.02" x="312.62" class="cls-5"></rect><rect height="26.55" width="351.01" y="209.1" x="312.62" class="cls-5"></rect><rect height="26.55" width="351.01" y="255.18" x="312.62" class="cls-5"></rect><rect height="26.55" width="351.01" y="301.27" x="312.62" class="cls-5"></rect><rect height="26.55" width="351.01" y="347.35" x="312.62" class="cls-5"></rect><rect height="26.55" width="351.01" y="393.43" x="312.62" class="cls-5"></rect><rect height="26.55" width="351.01" y="439.52" x="312.62" class="cls-5"></rect><path d="M285.33,335.38c7.38-7.47-29.94-9.75-68.23,1.72s-80.57,75.16-60.55,129.77S229.7,491,229.7,491c22.64-11.29,51.09-30.86,69.3-63.8,17.67-32,20-66.14,20-66.14a57.11,57.11,0,0,1-6.71,17.65,59.24,59.24,0,0,1-8.89,11.7c4-6.83,11.47-22.19,7.13-39.23-2.53-9.91-8.44-18-10.59-17.3-2.89.9,2.92,16.9-6,28.59a23.75,23.75,0,0,1-4.7,4.62c5-17,9.61-35.64,6.13-37.14-.88-.38-1.75.54-6.45,4.67,0,0-14.43,12.68-29.47,20.45C259.42,355.1,262.2,358.81,285.33,335.38Z" class="cls-6"></path><path d="M228.28,373.39c-7.35-6.61-31.66,28.5-35.58,32.53s-1-4.75-1.13-14.91-14.5,8-20.24,35.71,6.92,43.4,6.92,43.4c15.13-.22,42-2.92,68.59-19.38,8.88-5.49,28.56-19.21,39-42.71,1.72-3.89,6.17-14,2.82-16.94-4.46-4-20,7.1-22.67,9,0,0,3.91-9.55,9.16-22.6s-46.07,19-46.07,19S235.62,380,228.28,373.39Z" class="cls-2"></path><path d="M33,483.94c-3.08-1.37-7.12-2.24-10.1-1.33A142.56,142.56,0,0,0,67,501c40.28,9.35,106.39,14,143.38-32.77,36-45.47,35-125.88-33.87-145a39.46,39.46,0,0,0-12.6-1.76c-11.61.62-34.87,4.12-47.39,21.68-3.71,5.19-7.25,13.78-11.18,23.95,15.87,5.56,29,21.74,46.09,25.81,12.19,2.9,24.84-.72,37.33-1.73a89.59,89.59,0,0,1,24.78,1.46c3.8.77,7.87,2,10.16,5.13,2.12,2.91,2.21,6.81,2,10.4-1,15.75-6.34,31-13.86,44.86A83.14,83.14,0,0,1,201.05,469c-11.38,12.8-28.07,20-45,22.76s-34.19,1.63-51.25.08l3.8,6.45a76.07,76.07,0,0,1-39.72-6.1,15.11,15.11,0,0,1,.86,6.18C56.55,497.31,45.07,489.35,33,483.94Z" class="cls-7"></path><path d="M273.06,267.79c11.48,28.19-5.83,60.67-27.92,76.19-31.36,22-83.91,18-101.6-14.73-16.55-30.58,3.45-75,37.54-90.62C213.74,223.67,259.71,235,273.06,267.79Z" class="cls-7"></path><path d="M130.62,530.58l-9.09-5.36-4.21-19.33a4.82,4.82,0,0,0-9.41,2.05L112,526.55a4.31,4.31,0,0,0-1,1.25l-5,9.52a4.49,4.49,0,0,0,8,4.17l1.45-2.76.43,2a4.49,4.49,0,1,0,8.78-1.91l-.33-1.5,1.76,1a4.49,4.49,0,1,0,4.57-7.74Z" class="cls-8"></path><path d="M186.74,518.34,177.65,513l-4.22-19.32a4.81,4.81,0,1,0-9.4,2.05l4.06,18.61a4.14,4.14,0,0,0-1,1.24l-5,9.53a4.49,4.49,0,0,0,8,4.16l1.45-2.76.43,2a4.49,4.49,0,1,0,8.78-1.92l-.33-1.49,1.76,1a4.49,4.49,0,1,0,4.57-7.73Z" class="cls-8"></path><path d="M235.8,236.1l-1.49-.36a16.64,16.64,0,0,0-2.62-.52,36.52,36.52,0,0,0-5.32-.48l-2.67,0c-.88,0-1.76.14-2.64.2a70.59,70.59,0,0,0-20.18,5.29c-12.74,5.26-24.38,12.2-36.34,18s-24.44,10.71-37.35,10.64A48.07,48.07,0,0,1,108.47,265a59.78,59.78,0,0,1-8.39-4.39,55.81,55.81,0,0,0,10.34.06c1.71-.17,3.43-.32,5.13-.62a38.09,38.09,0,0,0,5-1.35c3.23-1.08,6.55-1.72,9.84-2.54l5.2-1.29-4.65-3.67a36.77,36.77,0,0,1-3-2.68c-1-.93-2-1.84-2.94-2.87s-1.78-2-2.63-3.08a23.88,23.88,0,0,0,4.47-1.17,50.81,50.81,0,0,0,8.22-3.77c2.61-1.46,5-3,7.38-4.41a72.17,72.17,0,0,1,7.27-3.75,114.72,114.72,0,0,1,31.95-8.83c11-1.36,22.26-1.29,32.76,1.61a43.47,43.47,0,0,1,14.47,6.86c1.08.78,2.06,1.68,3.06,2.55a35.48,35.48,0,0,1,2.72,2.9Z" class="cls-7"></path><circle r="34.92" cy="277.04" cx="231.65" class="cls-9"></circle><path d="M219.2,309.66s-42.87-18.33-50-33.94S220.37,244,220.37,244Z" class="cls-9"></path><circle r="26.56" cy="277.04" cx="231.65" class="cls-10"></circle><circle r="17.82" cy="274.68" cx="237.27" class="cls-11"></circle><path d="M247,262.62a6.31,6.31,0,1,0-1.66,8.78A6.3,6.3,0,0,0,247,262.62Z" class="cls-12"></path><path d="M238.64,282.28a3.53,3.53,0,1,0-.92,4.91A3.52,3.52,0,0,0,238.64,282.28Z" class="cls-12"></path><path d="M275.38,275.62s-4.75-15.3-10-20.47c4.79,0,18.87-1.21,28.16,23.34C276.08,276.2,275.38,275.62,275.38,275.62Z" class="cls-8"></path><path d="M243.37,377.43,440.3,119s11.58,1.29,7.08,7.08S247.91,383.22,247.91,383.22,238.1,384.35,243.37,377.43Z" class="cls-13"></path><path d="M247.88,376.51,445,120.91s7.62,3.15,3.14,8.86L249.6,383.58S242.61,383.36,247.88,376.51Z" class="cls-14"></path><path d="M260.72,329.14s25.39-.47,25.81,2.36-28.31,26.1-28.31,26.1" class="cls-6"></path><path d="M27.67,465.84c-3.9.52-29.84-8.17-27.52-3.1S26.68,491.68,67,501s106.39,14,143.38-32.77c36-45.47,35-125.88-33.87-145a39.46,39.46,0,0,0-12.6-1.76c-11.61.62-34.87,4.12-47.39,21.68-17.13,24-30.89,120.5-94.27,111.43C22.2,454.65,31.57,465.32,27.67,465.84Z" class="cls-7"></path><g class="cls-15"><path d="M237.89,494.14a69.78,69.78,0,0,0,3.29-18.22c1.76-39.26-29.5-72.56-69.82-74.37s-74.44,28.56-76.2,67.82a69.35,69.35,0,0,0,1.66,18.53c19.54,16.28,43.84,22.61,69.61,23.56C191.52,512.79,216.75,508.67,237.89,494.14Z" class="cls-16"></path><path d="M237.89,494.14a69.78,69.78,0,0,0,3.29-18.22c1.76-39.26-29.5-72.56-69.82-74.37s-74.44,28.56-76.2,67.82a69.35,69.35,0,0,0,1.66,18.53c19.54,16.28,43.84,22.61,69.61,23.56C191.52,512.79,216.75,508.67,237.89,494.14Z" class="cls-2"></path><g class="cls-17"><polygon points="135.44 426.51 120.68 425.85 127.89 433.73 135.44 426.51" class="cls-6"></polygon><polygon points="151.94 427.25 137.18 426.59 144.38 434.47 151.94 427.25" class="cls-6"></polygon><polygon points="168.44 427.99 153.67 427.33 160.88 435.21 168.44 427.99" class="cls-6"></polygon><polygon points="184.93 428.73 170.17 428.07 177.37 435.95 184.93 428.73" class="cls-6"></polygon><polygon points="201.42 429.47 186.66 428.81 193.87 436.69 201.42 429.47" class="cls-6"></polygon><polygon points="217.92 430.21 203.16 429.55 210.36 437.43 217.92 430.21" class="cls-6"></polygon><polygon points="234.41 430.95 219.65 430.29 226.86 438.17 234.41 430.95" class="cls-6"></polygon><polygon points="118.95 425.77 104.19 425.11 111.39 432.99 118.95 425.77" class="cls-6"></polygon><polygon points="144.13 417.01 129.37 416.35 136.58 424.24 144.13 417.01" class="cls-6"></polygon><polygon points="160.63 417.75 145.87 417.09 153.07 424.98 160.63 417.75" class="cls-6"></polygon><polygon points="177.13 418.5 162.36 417.83 169.57 425.71 177.13 418.5" class="cls-6"></polygon><polygon points="193.62 419.24 178.86 418.57 186.06 426.45 193.62 419.24" class="cls-6"></polygon><polygon points="210.11 419.98 195.35 419.31 202.56 427.19 210.11 419.98" class="cls-6"></polygon><polygon points="226.61 420.71 211.85 420.05 219.05 427.94 226.61 420.71" class="cls-6"></polygon><polygon points="127.64 416.28 112.88 415.61 120.08 423.5 127.64 416.28" class="cls-6"></polygon><polygon points="259.6 422.19 244.84 421.53 252.04 429.42 259.6 422.19" class="cls-6"></polygon><polygon points="128.53 396.54 113.76 395.88 120.97 403.76 128.53 396.54" class="cls-6"></polygon><polygon points="145.02 397.28 130.26 396.62 137.46 404.5 145.02 397.28" class="cls-6"></polygon><polygon points="161.51 398.02 146.75 397.36 153.96 405.24 161.51 398.02" class="cls-6"></polygon><polygon points="178.01 398.76 163.25 398.1 170.45 405.98 178.01 398.76" class="cls-6"></polygon><polygon points="194.5 399.5 179.74 398.84 186.94 406.72 194.5 399.5" class="cls-6"></polygon><polygon points="211 400.24 196.24 399.58 203.44 407.46 211 400.24" class="cls-6"></polygon><polygon points="227.49 400.98 212.73 400.32 219.94 408.2 227.49 400.98" class="cls-6"></polygon><polygon points="112.03 395.8 97.27 395.14 104.47 403.02 112.03 395.8" class="cls-6"></polygon><polygon points="260.48 402.46 245.72 401.8 252.93 409.68 260.48 402.46" class="cls-6"></polygon><polygon points="243.99 401.72 229.23 401.06 236.43 408.94 243.99 401.72" class="cls-6"></polygon><polygon points="136.33 406.78 121.57 406.12 128.77 414 136.33 406.78" class="cls-6"></polygon><polygon points="152.82 407.52 138.06 406.86 145.27 414.74 152.82 407.52" class="cls-6"></polygon><polygon points="169.32 408.26 154.56 407.6 161.76 415.48 169.32 408.26" class="cls-6"></polygon><polygon points="185.81 409 171.05 408.34 178.26 416.22 185.81 409" class="cls-6"></polygon><polygon points="202.31 409.74 187.55 409.08 194.75 416.96 202.31 409.74" class="cls-6"></polygon><polygon points="218.81 410.48 204.04 409.82 211.25 417.7 218.81 410.48" class="cls-6"></polygon><polygon points="119.83 406.04 105.07 405.38 112.28 413.26 119.83 406.04" class="cls-6"></polygon><polygon points="268.29 412.7 253.53 412.04 260.73 419.92 268.29 412.7" class="cls-6"></polygon><polygon points="251.79 411.96 237.03 411.3 244.24 419.18 251.79 411.96" class="cls-6"></polygon><polygon points="132.81 465.94 118.04 465.28 125.25 473.16 132.81 465.94" class="cls-6"></polygon><polygon points="149.3 466.68 134.54 466.02 141.74 473.9 149.3 466.68" class="cls-6"></polygon><polygon points="165.8 467.42 151.03 466.76 158.24 474.64 165.8 467.42" class="cls-6"></polygon><polygon points="182.29 468.16 167.53 467.5 174.73 475.38 182.29 468.16" class="cls-6"></polygon><polygon points="198.79 468.9 184.02 468.24 191.23 476.12 198.79 468.9" class="cls-6"></polygon><polygon points="215.28 469.64 200.52 468.98 207.72 476.86 215.28 469.64" class="cls-6"></polygon><polygon points="231.78 470.38 217.01 469.72 224.22 477.6 231.78 470.38" class="cls-6"></polygon><polygon points="116.31 465.2 101.55 464.54 108.75 472.42 116.31 465.2" class="cls-6"></polygon><polygon points="99.82 464.46 85.05 463.8 92.26 471.68 99.82 464.46" class="cls-6"></polygon><polygon points="264.77 471.86 250 471.2 257.21 479.08 264.77 471.86" class="cls-6"></polygon><polygon points="248.27 471.12 233.51 470.46 240.71 478.34 248.27 471.12" class="cls-6"></polygon><polygon points="92.88 454.26 78.12 453.6 85.32 461.48 92.88 454.26" class="cls-6"></polygon><polygon points="141.5 456.44 126.74 455.78 133.94 463.66 141.5 456.44" class="cls-6"></polygon><polygon points="157.99 457.18 143.23 456.52 150.43 464.4 157.99 457.18" class="cls-6"></polygon><polygon points="174.49 457.92 159.72 457.26 166.93 465.14 174.49 457.92" class="cls-6"></polygon><polygon points="190.98 458.66 176.22 458 183.42 465.88 190.98 458.66" class="cls-6"></polygon><polygon points="207.47 459.4 192.71 458.74 199.92 466.62 207.47 459.4" class="cls-6"></polygon><polygon points="223.97 460.14 209.21 459.48 216.41 467.36 223.97 460.14" class="cls-6"></polygon><polygon points="240.47 460.88 225.71 460.22 232.91 468.1 240.47 460.88" class="cls-6"></polygon><polygon points="125 455.7 110.24 455.04 117.44 462.92 125 455.7" class="cls-6"></polygon><polygon points="108.51 454.96 93.75 454.3 100.95 462.18 108.51 454.96" class="cls-6"></polygon><polygon points="256.96 461.62 242.2 460.96 249.4 468.84 256.96 461.62" class="cls-6"></polygon><polygon points="92.9 434.49 78.14 433.83 85.34 441.71 92.9 434.49" class="cls-6"></polygon><polygon points="125.89 435.97 111.13 435.31 118.33 443.19 125.89 435.97" class="cls-6"></polygon><polygon points="142.38 436.71 127.62 436.05 134.82 443.93 142.38 436.71" class="cls-6"></polygon><polygon points="158.88 437.45 144.12 436.79 151.32 444.67 158.88 437.45" class="cls-6"></polygon><polygon points="175.37 438.19 160.61 437.53 167.81 445.41 175.37 438.19" class="cls-6"></polygon><polygon points="191.87 438.93 177.11 438.27 184.31 446.15 191.87 438.93" class="cls-6"></polygon><polygon points="208.36 439.67 193.6 439.01 200.81 446.89 208.36 439.67" class="cls-6"></polygon><polygon points="224.86 440.41 210.09 439.75 217.3 447.63 224.86 440.41" class="cls-6"></polygon><polygon points="109.39 435.23 94.63 434.57 101.83 442.45 109.39 435.23" class="cls-6"></polygon><polygon points="241.35 441.15 226.59 440.49 233.79 448.37 241.35 441.15" class="cls-6"></polygon><polygon points="133.69 446.21 118.93 445.54 126.13 453.43 133.69 446.21" class="cls-6"></polygon><polygon points="150.19 446.95 135.42 446.28 142.63 454.17 150.19 446.95" class="cls-6"></polygon><polygon points="166.68 447.69 151.92 447.02 159.13 454.91 166.68 447.69" class="cls-6"></polygon><polygon points="183.18 448.43 168.42 447.76 175.62 455.65 183.18 448.43" class="cls-6"></polygon><polygon points="199.67 449.17 184.91 448.5 192.12 456.39 199.67 449.17" class="cls-6"></polygon><polygon points="216.16 449.9 201.4 449.24 208.61 457.13 216.16 449.9" class="cls-6"></polygon><polygon points="232.66 450.64 217.9 449.98 225.1 457.87 232.66 450.64" class="cls-6"></polygon><polygon points="117.2 445.47 102.44 444.8 109.64 452.69 117.2 445.47" class="cls-6"></polygon><polygon points="100.7 444.73 85.94 444.06 93.14 451.95 100.7 444.73" class="cls-6"></polygon><polygon points="265.65 452.13 250.89 451.46 258.09 459.35 265.65 452.13" class="cls-6"></polygon><polygon points="249.16 451.38 234.4 450.72 241.6 458.61 249.16 451.38" class="cls-6"></polygon><polygon points="114.54 504.67 99.78 504 106.98 511.89 114.54 504.67" class="cls-6"></polygon><polygon points="131.04 505.41 116.27 504.74 123.48 512.63 131.04 505.41" class="cls-6"></polygon><polygon points="147.53 506.15 132.77 505.48 139.97 513.37 147.53 506.15" class="cls-6"></polygon><polygon points="164.03 506.89 149.26 506.22 156.47 514.11 164.03 506.89" class="cls-6"></polygon><polygon points="180.52 507.63 165.76 506.96 172.96 514.85 180.52 507.63" class="cls-6"></polygon><polygon points="197.02 508.37 182.25 507.7 189.46 515.59 197.02 508.37" class="cls-6"></polygon><polygon points="213.51 509.11 198.75 508.44 205.95 516.33 213.51 509.11" class="cls-6"></polygon><polygon points="230.01 509.85 215.25 509.18 222.45 517.07 230.01 509.85" class="cls-6"></polygon><polygon points="254.32 501.05 239.56 500.39 246.77 508.27 254.32 501.05" class="cls-6"></polygon><polygon points="123.23 495.17 108.47 494.51 115.67 502.39 123.23 495.17" class="cls-6"></polygon><polygon points="139.73 495.91 124.97 495.25 132.17 503.13 139.73 495.91" class="cls-6"></polygon><polygon points="156.22 496.65 141.46 495.99 148.67 503.87 156.22 496.65" class="cls-6"></polygon><polygon points="172.72 497.39 157.96 496.73 165.16 504.61 172.72 497.39" class="cls-6"></polygon><polygon points="189.21 498.13 174.45 497.47 181.66 505.35 189.21 498.13" class="cls-6"></polygon><polygon points="205.71 498.87 190.94 498.21 198.15 506.09 205.71 498.87" class="cls-6"></polygon><polygon points="222.2 499.61 207.44 498.95 214.65 506.83 222.2 499.61" class="cls-6"></polygon><polygon points="106.74 494.43 91.97 493.77 99.18 501.65 106.74 494.43" class="cls-6"></polygon><polygon points="90.24 493.69 75.48 493.03 82.69 500.91 90.24 493.69" class="cls-6"></polygon><polygon points="238.7 500.35 223.94 499.69 231.14 507.57 238.7 500.35" class="cls-6"></polygon><polygon points="255.7 481.34 240.94 480.68 248.14 488.56 255.7 481.34" class="cls-6"></polygon><polygon points="107.62 474.7 92.86 474.03 100.06 481.92 107.62 474.7" class="cls-6"></polygon><polygon points="124.12 475.44 109.36 474.77 116.56 482.66 124.12 475.44" class="cls-6"></polygon><polygon points="140.61 476.18 125.85 475.51 133.06 483.4 140.61 476.18" class="cls-6"></polygon><polygon points="157.11 476.92 142.34 476.25 149.55 484.14 157.11 476.92" class="cls-6"></polygon><polygon points="173.6 477.65 158.84 476.99 166.05 484.88 173.6 477.65" class="cls-6"></polygon><polygon points="190.1 478.39 175.34 477.73 182.54 485.62 190.1 478.39" class="cls-6"></polygon><polygon points="206.59 479.13 191.83 478.47 199.04 486.36 206.59 479.13" class="cls-6"></polygon><polygon points="91.13 473.96 76.37 473.29 83.57 481.18 91.13 473.96" class="cls-6"></polygon><polygon points="239.58 480.62 224.82 479.95 232.03 487.84 239.58 480.62" class="cls-6"></polygon><polygon points="223.09 479.88 208.33 479.21 215.53 487.1 223.09 479.88" class="cls-6"></polygon><polygon points="115.43 484.93 100.67 484.27 107.87 492.15 115.43 484.93" class="cls-6"></polygon><polygon points="131.92 485.67 117.16 485.01 124.36 492.89 131.92 485.67" class="cls-6"></polygon><polygon points="148.42 486.41 133.66 485.75 140.86 493.63 148.42 486.41" class="cls-6"></polygon><polygon points="164.91 487.15 150.15 486.49 157.35 494.37 164.91 487.15" class="cls-6"></polygon><polygon points="181.41 487.89 166.65 487.23 173.85 495.11 181.41 487.89" class="cls-6"></polygon><polygon points="197.9 488.63 183.14 487.97 190.35 495.85 197.9 488.63" class="cls-6"></polygon><polygon points="214.4 489.37 199.64 488.71 206.84 496.59 214.4 489.37" class="cls-6"></polygon><polygon points="98.93 484.19 84.17 483.53 91.37 491.41 98.93 484.19" class="cls-6"></polygon><polygon points="263.01 491.55 248.25 490.89 255.46 498.77 263.01 491.55" class="cls-6"></polygon><polygon points="247.39 490.85 232.62 490.19 239.83 498.07 247.39 490.85" class="cls-6"></polygon><polygon points="230.89 490.11 216.13 489.45 223.33 497.33 230.89 490.11" class="cls-6"></polygon></g></g><path d="M84.57,514.58c-5.83,8.73,31.24,3.91,66.68-14.59s64.9-89.05,34.91-138.88-76.39-9.89-76.39-9.89C90.22,370.94,73.57,406,53.78,427s-35.25,22.73-40,31.42,42.71,5.53,42.71,5.53-31.54,13-35.3,21.68,49.67-1.13,49.67-1.13S45.63,500.41,43,511.11s60.29-18.54,63.3-20.79S90.4,505.85,84.57,514.58Z" class="cls-6"></path><path d="M133.41,466.46c8.46,5.1,25.69-34,28.78-38.67s1.85,4.48,3.93,14.42,12.72-10.59,13.12-38.89-15-41.3-15-41.3c-23-16.32-48.71,16.74-63.69,32s-34.78,33.46-44.83,48.5,35.64,4.82,35.64,4.82-2,10.12-4.71,23.92,41.64-27.38,41.64-27.38S124.94,461.36,133.41,466.46Z" class="cls-2"></path><path d="M106.55,223.29,131.7,274s20.55,9,59.45-4.8,51.72-34.24,51.72-34.24l-10.28-55.11-56.28,57.47Z" class="cls-18"></path><polygon points="35.44 199.29 37.38 204.9 106.55 223.28 176.31 237.28 232.59 179.81 277.54 136.04 276.46 132.92 174.81 233.95 35.44 199.29" class="cls-19"></polygon><polygon points="35.44 199.29 174.81 233.95 276.46 132.92 144.01 131.47 35.44 199.29" class="cls-18"></polygon><path d="M59.57,241.93a.66.66,0,0,1-.81-.33c-3.63-7.4-15.21-31.74-11.74-34.4a1.16,1.16,0,0,1,1.44-.1c2.84,1.53,7,16.34,10.63,30.63.44,1.72.79,3.07.89,3.36a.66.66,0,0,1-.37.82l0,0ZM47.79,208.24c-1.5,1.18,3.22,13.68,9.16,26.49-5.61-21.44-8.08-26.29-9.16-26.49Z" class="cls-18"></path><path d="M69.05,300.8a.64.64,0,0,1-.28,0,.65.65,0,0,1-.59-.72,116.65,116.65,0,0,0-8.9-57.42c-2.08,3.75-8.4,18.24-1.5,46.7a.66.66,0,1,1-1.28.31c-8.26-34.06,1.89-48.2,2.33-48.79a.64.64,0,0,1,.58-.26A.67.67,0,0,1,60,241c.12.25,13,26.1,9.54,59.24a.64.64,0,0,1-.44.55Z" class="cls-19"></path><path d="M64.51,295.73a.63.63,0,0,1-.31,0,.65.65,0,0,1-.55-.75c2.23-15.11-2.27-40.35-4.16-49.82-1,8.22-2.75,28,1.69,40.87a.66.66,0,0,1-.41.84.65.65,0,0,1-.84-.41c-5.8-16.81-1.27-45-1.23-45.29a.68.68,0,0,1,.64-.55.65.65,0,0,1,.66.51c.08.35,7.76,35,5,54a.65.65,0,0,1-.44.52Z" class="cls-19"></path><path d="M63.29,281.38a.67.67,0,0,1-.83-.38c-4.29-10.39-3.8-36.95-3.78-38.07A.66.66,0,0,1,60,243c0,.28-.5,27.41,3.68,37.55a.67.67,0,0,1-.36.87Z" class="cls-19"></path><path d="M99.09,168.26l46.66-29.71,50.1.52S170.54,163.86,99.09,168.26Z" class="cls-20"></path><g class="cls-21"><path d="M176.31,237.28l-69.76-14L131.7,274s20.55,9,59.45-4.8,51.72-34.24,51.72-34.24l-10.28-55.11Zm59.37-11.4c2.65,14.44-18.61,30.38-47.87,40s-51.43,6.1-56.19-3.66S115.27,229,115.27,229l60.79,11.61,52.8-48.7S233,211.43,235.68,225.88Z" class="cls-18"></path></g><path d="M176.82,233.37l98.55-98.21.5,1.45-41,40.95L277.54,136l-1.08-3.12L174.81,234,35.44,199.29l1.94,5.61,69.17,18.39,69.76,14,53.52-54.65L177.4,235ZM39.18,204.05l-1.35-2.56,135.18,33,.92,2Z" class="cls-22"></path><polygon points="232.59 179.81 229.83 182.63 234.91 177.56 232.59 179.81" class="cls-19"></polygon><path d="M125.69,237.59s11.22,22.11,12.71,22.54S125.23,231.87,125.69,237.59Z" class="cls-23"></path></g></g></g></g></svg>